<svg xmlns="http://www.w3.org/2000/svg" xmlns:xlink="http://www.w3.org/1999/xlink" width="180" zoomAndPan="magnify" viewBox="0 0 135 30.000001" height="40" preserveAspectRatio="xMidYMid meet" version="1.0"><defs><g/><clipPath id="846cd7898f"><path d="M 19 0.722656 L 20 0.722656 L 20 1 L 19 1 Z M 19 0.722656 " clip-rule="nonzero"/></clipPath><clipPath id="e28950f2b0"><path d="M 25 5 L 26.128906 5 L 26.128906 6 L 25 6 Z M 25 5 " clip-rule="nonzero"/></clipPath><clipPath id="98859eb484"><path d="M 2.175781 0.757812 L 26.128906 0.757812 L 26.128906 28.289062 L 2.175781 28.289062 Z M 2.175781 0.757812 " clip-rule="nonzero"/></clipPath><clipPath id="6cc17a34f3"><path d="M 29 1 L 132.820312 1 L 132.820312 27 L 29 27 Z M 29 1 " clip-rule="nonzero"/></clipPath><clipPath id="c6cc084fdd"><rect x="0" width="104" y="0" height="26"/></clipPath></defs><path fill="#007a3f" d="M 24.964844 6.078125 C 25.113281 6.199219 24.238281 5.46875 24.964844 6.078125 " fill-opacity="1" fill-rule="nonzero"/><path fill="#007a3f" d="M 13.757812 13.492188 C 13.894531 13.324219 13.621094 13.652344 13.757812 13.492188 " fill-opacity="1" fill-rule="nonzero"/><path fill="#007a3f" d="M 21.910156 17.519531 C 22.070312 17.433594 21.871094 17.542969 21.910156 17.519531 " fill-opacity="1" fill-rule="nonzero"/><path fill="#007a3f" d="M 19.730469 20.375 C 20 20.066406 19.984375 19.988281 19.730469 20.375 " fill-opacity="1" fill-rule="nonzero"/><path fill="#007a3f" d="M 7.132812 1.4375 C 7.222656 1.378906 6.222656 2.03125 7.132812 1.4375 " fill-opacity="1" fill-rule="nonzero"/><g clip-path="url(#846cd7898f)"><path fill="#007a3f" d="M 19.957031 0.792969 C 19.546875 1.011719 20.058594 0.738281 19.957031 0.792969 " fill-opacity="1" fill-rule="nonzero"/></g><g clip-path="url(#e28950f2b0)"><path fill="#007a3f" d="M 26.171875 5.679688 C 25.71875 5.296875 26.289062 5.78125 26.171875 5.679688 " fill-opacity="1" fill-rule="nonzero"/></g><path fill="#007a3f" d="M 14.246094 5.210938 C 14.246094 5.214844 14.246094 5.21875 14.246094 5.21875 C 14.238281 5.136719 14.226562 5.027344 14.246094 5.210938 " fill-opacity="1" fill-rule="nonzero"/><path fill="#007a3f" d="M 16.230469 4.710938 C 16.230469 4.710938 16.234375 4.714844 16.234375 4.714844 C 16.234375 4.710938 16.234375 4.710938 16.230469 4.703125 C 16.234375 4.707031 16.230469 4.707031 16.230469 4.710938 " fill-opacity="1" fill-rule="nonzero"/><g clip-path="url(#98859eb484)"><path fill="#007a3f" d="M 24.445312 14.3125 C 24.453125 14.296875 24.457031 14.277344 24.464844 14.257812 C 24.460938 14.265625 24.460938 14.273438 24.457031 14.28125 C 24.453125 14.292969 24.449219 14.304688 24.445312 14.3125 Z M 18.515625 24.839844 C 18.226562 25.132812 17.921875 25.40625 17.613281 25.675781 C 17.519531 25.46875 17.433594 25.320312 17.421875 25.0625 C 17.421875 25.03125 17.40625 24.976562 17.382812 24.921875 C 17.515625 24.804688 17.65625 24.703125 17.785156 24.582031 C 18.144531 24.242188 18.5 23.894531 18.84375 23.535156 C 18.875 23.722656 18.929688 23.914062 18.9375 23.945312 C 18.96875 24.082031 19.007812 24.175781 19.042969 24.269531 C 18.867188 24.460938 18.695312 24.65625 18.515625 24.839844 Z M 15.394531 27.265625 C 15.402344 27.207031 15.414062 27.15625 15.40625 27.039062 C 15.40625 27.0625 15.410156 27.085938 15.40625 27.035156 C 15.398438 26.972656 15.402344 27 15.40625 27.03125 C 15.390625 26.894531 15.347656 26.765625 15.300781 26.675781 C 15.332031 26.652344 15.363281 26.628906 15.390625 26.605469 C 15.640625 26.402344 15.878906 26.1875 16.128906 25.980469 C 16.09375 26.015625 16.050781 26.050781 16.0625 26.105469 C 16.101562 26.300781 16.09375 26.511719 16.195312 26.691406 C 16.207031 26.707031 16.230469 26.726562 16.257812 26.742188 C 16.226562 26.761719 16.199219 26.785156 16.171875 26.804688 C 15.921875 26.976562 15.65625 27.117188 15.394531 27.265625 Z M 17.273438 25.636719 C 17.300781 25.699219 17.390625 25.765625 17.472656 25.804688 C 17.144531 26.085938 16.800781 26.347656 16.449219 26.597656 C 16.375 26.402344 16.335938 26.230469 16.296875 26.023438 C 16.277344 25.941406 16.21875 25.933594 16.167969 25.949219 C 16.507812 25.667969 16.84375 25.382812 17.175781 25.09375 C 17.183594 25.28125 17.203125 25.472656 17.273438 25.636719 Z M 14.40625 26.664062 C 14.460938 26.171875 14.394531 25.523438 14.40625 25.195312 C 14.414062 24.9375 14.40625 24.683594 14.414062 24.429688 C 14.679688 24.035156 14.972656 23.363281 15.035156 23.242188 C 16.132812 21.476562 17.578125 19.835938 18.929688 18.253906 C 17.671875 20.144531 16.308594 22.023438 15.203125 24.003906 C 15.097656 24.1875 14.503906 24.984375 14.8125 25.152344 C 15.097656 25.308594 15.640625 24.121094 15.773438 23.917969 C 16.453125 22.894531 17.21875 21.929688 17.980469 20.964844 C 17.316406 21.921875 16.660156 22.894531 16.019531 23.878906 C 15.78125 24.183594 14.835938 25.1875 14.90625 25.691406 C 14.800781 25.777344 14.699219 25.867188 14.589844 25.949219 C 14.246094 26.21875 14.761719 26.324219 15.042969 26.101562 C 16.46875 24.964844 17.71875 23.671875 18.984375 22.363281 C 19.578125 21.75 20.191406 21.148438 20.75 20.503906 C 20.183594 21.332031 19.542969 22.109375 18.867188 22.828125 C 18.097656 23.648438 17.265625 24.414062 16.402344 25.136719 C 15.984375 25.484375 15.566406 25.832031 15.125 26.144531 C 14.972656 26.25 14.667969 26.515625 14.40625 26.664062 Z M 13.003906 26.144531 C 12.5625 25.832031 12.144531 25.484375 11.726562 25.136719 C 11.601562 25.03125 11.492188 24.90625 11.367188 24.800781 C 11.386719 24.707031 11.386719 24.636719 11.308594 24.6875 C 11.300781 24.695312 11.292969 24.710938 11.28125 24.71875 C 11.28125 24.71875 11.277344 24.714844 11.273438 24.714844 C 11.300781 24.695312 11.324219 24.679688 11.308594 24.6875 C 11.289062 24.703125 11.285156 24.703125 11.273438 24.714844 C 10.582031 24.109375 9.890625 23.496094 9.261719 22.828125 C 7.828125 21.304688 6.542969 19.53125 5.8125 17.5625 C 5.5625 16.886719 5.371094 16.183594 5.203125 15.476562 C 6.890625 15.476562 8.578125 15.550781 10.265625 15.601562 C 11.113281 15.628906 11.957031 15.652344 12.804688 15.65625 C 12.957031 15.65625 13.328125 15.714844 13.539062 15.65625 C 13.734375 15.671875 13.933594 15.664062 14.101562 15.617188 C 14.074219 16.605469 14.039062 17.59375 14 18.582031 C 13.949219 19.925781 14.011719 21.273438 13.992188 22.617188 C 13.96875 23.976562 13.835938 25.335938 13.878906 26.699219 C 13.878906 26.703125 13.882812 26.722656 13.882812 26.734375 C 13.601562 26.628906 13.191406 26.273438 13.003906 26.144531 Z M 12.90625 27.710938 C 12.53125 27.542969 12.175781 27.335938 11.851562 27.09375 C 11.980469 26.792969 12.148438 26.519531 12.289062 26.226562 C 12.441406 26.351562 12.589844 26.480469 12.738281 26.605469 C 12.832031 26.679688 12.929688 26.753906 13.023438 26.828125 C 13.023438 26.832031 13.023438 26.828125 13.023438 26.828125 C 13.027344 26.828125 13.03125 26.832031 13.03125 26.835938 C 12.941406 27.117188 12.957031 27.417969 12.90625 27.710938 Z M 10.574219 25.949219 C 10.625 26.003906 10.679688 26.03125 10.742188 25.972656 C 10.882812 25.742188 11.03125 25.515625 11.175781 25.285156 C 11.476562 25.539062 11.773438 25.796875 12.078125 26.046875 C 11.964844 26.269531 11.851562 26.492188 11.742188 26.71875 C 11.710938 26.777344 11.703125 26.871094 11.703125 26.96875 C 11.585938 26.875 11.464844 26.785156 11.363281 26.6875 C 11.105469 26.441406 10.839844 26.195312 10.574219 25.949219 Z M 9.640625 25.074219 C 9.769531 25.136719 9.992188 24.703125 10.125 24.363281 C 10.199219 24.433594 10.269531 24.511719 10.347656 24.582031 C 10.546875 24.769531 10.765625 24.929688 10.96875 25.109375 C 10.886719 25.25 10.808594 25.402344 10.738281 25.515625 C 10.59375 25.628906 10.535156 25.769531 10.550781 25.925781 C 10.246094 25.644531 9.945312 25.359375 9.640625 25.074219 Z M 8.640625 24.070312 C 8.746094 23.902344 8.84375 23.644531 8.886719 23.570312 C 8.886719 23.566406 8.960938 23.398438 9.011719 23.238281 C 9.316406 23.566406 9.632812 23.882812 9.953125 24.195312 C 9.714844 24.4375 9.496094 24.847656 9.605469 25.042969 C 9.394531 24.847656 9.183594 24.65625 8.980469 24.457031 C 8.855469 24.339844 8.757812 24.195312 8.640625 24.070312 Z M 6.816406 21.941406 C 6.703125 21.828125 6.632812 21.679688 6.53125 21.558594 C 6.652344 21.425781 6.9375 21.117188 7.109375 20.886719 C 7.371094 21.269531 7.652344 21.640625 7.941406 22.003906 C 7.847656 22.160156 7.761719 22.316406 7.65625 22.472656 C 7.511719 22.679688 7.59375 23.078125 7.734375 22.824219 C 7.847656 22.617188 8 22.441406 8.128906 22.246094 C 8.367188 22.53125 8.621094 22.808594 8.875 23.085938 C 8.738281 23.25 8.554688 23.582031 8.460938 23.863281 C 7.910156 23.226562 7.402344 22.550781 6.816406 21.941406 Z M 5.117188 19.132812 C 5.050781 18.964844 5 18.792969 4.9375 18.625 C 5.175781 18.492188 5.644531 18.003906 5.53125 17.890625 C 5.714844 18.371094 5.925781 18.839844 6.164062 19.300781 C 5.890625 19.453125 5.386719 19.789062 5.597656 19.933594 C 5.808594 20.082031 6.109375 19.769531 6.265625 19.511719 C 6.320312 19.609375 6.355469 19.710938 6.410156 19.804688 C 6.597656 20.128906 6.808594 20.433594 7.015625 20.742188 C 6.847656 20.867188 6.6875 21.058594 6.566406 21.167969 C 6.53125 21.199219 6.476562 21.3125 6.429688 21.421875 C 5.886719 20.722656 5.445312 19.945312 5.117188 19.132812 Z M 3.171875 12 C 3.402344 11.886719 3.65625 11.835938 3.890625 11.742188 C 3.90625 11.734375 3.957031 11.695312 4.011719 11.648438 C 4.105469 12.128906 4.199219 12.609375 4.292969 13.085938 C 4.125 13.175781 3.960938 13.277344 3.773438 13.34375 C 3.695312 13.371094 3.574219 13.480469 3.507812 13.574219 C 3.390625 13.050781 3.28125 12.523438 3.171875 12 Z M 5.527344 17.875 C 5.402344 17.804688 5.019531 18.125 4.851562 18.390625 C 4.300781 16.863281 3.882812 15.285156 3.53125 13.699219 C 3.546875 13.695312 3.546875 13.707031 3.570312 13.699219 C 3.832031 13.601562 4.113281 13.542969 4.355469 13.394531 C 4.371094 13.476562 4.386719 13.558594 4.402344 13.640625 C 4.480469 14.039062 4.5625 14.433594 4.648438 14.832031 C 4.308594 14.890625 3.832031 15.101562 3.992188 15.289062 C 4.066406 15.375 4.4375 15.207031 4.695312 15.050781 C 4.78125 15.433594 4.882812 15.8125 4.988281 16.191406 C 4.742188 16.296875 4.148438 16.710938 4.386719 16.871094 C 4.554688 16.984375 4.882812 16.546875 5.015625 16.304688 C 5.164062 16.835938 5.332031 17.359375 5.527344 17.875 Z M 3.820312 7 C 4.144531 7.109375 4.875 6.394531 5.054688 6.257812 C 4.914062 6.457031 4.359375 7.207031 4.785156 7.390625 C 4.714844 7.53125 4.707031 7.710938 4.875 7.796875 C 4.640625 8.082031 4.144531 8.65625 4.222656 9.0625 C 4.328125 9.613281 5.289062 8.859375 5.46875 8.710938 C 5.316406 8.929688 4.390625 10.167969 4.921875 10.328125 C 5.527344 10.511719 6.121094 9.679688 6.433594 9.285156 C 6.027344 9.828125 5.570312 10.410156 5.425781 11.089844 C 5.214844 12.097656 6.351562 11.152344 6.617188 10.898438 C 6.351562 11.234375 5.058594 12.617188 5.253906 13.058594 C 5.476562 13.554688 6.671875 12.097656 6.847656 11.898438 C 6.410156 12.554688 5.886719 13.25 5.644531 14.003906 C 5.304688 15.050781 6.328125 14.242188 6.609375 13.890625 C 6.242188 14.617188 6.703125 14.6875 7.179688 14.160156 C 7.460938 14.402344 8.183594 13.554688 8.363281 13.375 C 8.246094 13.558594 7.535156 14.523438 7.9375 14.667969 C 8.34375 14.8125 9.21875 13.769531 9.457031 13.519531 C 9.257812 13.796875 9.085938 14.09375 8.964844 14.414062 C 8.929688 14.496094 8.804688 15.144531 9.160156 14.886719 C 9.9375 14.324219 10.566406 13.582031 11.1875 12.859375 C 10.992188 13.136719 9.757812 14.75 10.148438 15.011719 C 10.625 15.332031 11.871094 13.414062 12.078125 13.121094 C 11.839844 13.5 11.53125 13.839844 11.386719 14.269531 C 11.136719 15.023438 11.746094 14.738281 12.101562 14.421875 C 11.820312 14.996094 11.96875 15.371094 12.550781 14.878906 C 12.496094 15.179688 12.75 15.191406 12.925781 15.046875 C 12.902344 15.109375 12.910156 15.144531 12.902344 15.191406 C 11.414062 15.171875 9.921875 15.125 8.4375 15.082031 C 7.589844 15.058594 6.742188 15.035156 5.894531 15.027344 C 5.730469 15.027344 5.296875 14.953125 5.105469 15.050781 C 4.824219 13.753906 4.621094 12.4375 4.417969 11.148438 C 4.238281 10.019531 4.019531 8.902344 3.847656 7.773438 C 3.820312 7.597656 3.828125 7.292969 3.820312 7 Z M 4.890625 5.429688 C 5.550781 4.828125 6.222656 4.230469 6.886719 3.632812 C 6.921875 3.613281 6.929688 3.578125 6.945312 3.546875 C 7.890625 4.4375 9.125 4.804688 10.316406 5.226562 C 11.460938 5.628906 12.683594 6.125 13.914062 6.234375 C 13.84375 6.570312 13.96875 7.203125 13.972656 7.34375 C 13.976562 7.386719 13.976562 7.429688 13.980469 7.472656 C 13.972656 7.976562 13.960938 8.484375 13.972656 8.992188 C 13.992188 10 14.046875 11.007812 14.097656 12.015625 C 14.09375 12.535156 14.085938 13.050781 14.0625 13.5625 C 14.015625 13.441406 13.863281 13.363281 13.757812 13.492188 C 13.621094 13.652344 13.496094 13.820312 13.367188 13.984375 C 13.578125 13.648438 13.8125 13.324219 13.976562 13.050781 C 13.976562 13.050781 13.980469 13.050781 13.980469 13.046875 C 14.238281 12.640625 13.707031 12.75 13.527344 12.992188 C 13.242188 13.378906 12.996094 13.796875 12.6875 14.164062 C 12.953125 13.742188 13.269531 13.355469 13.550781 12.945312 C 13.722656 12.695312 13.878906 12.4375 14.007812 12.160156 C 14.070312 12.019531 13.910156 11.730469 13.738281 11.890625 C 13.019531 12.546875 12.617188 13.488281 11.863281 14.113281 C 12.164062 13.535156 12.589844 13.003906 12.941406 12.453125 C 13.09375 12.210938 13.832031 10.753906 13.003906 11.460938 C 12.089844 12.246094 11.640625 13.425781 10.75 14.230469 C 11.0625 13.683594 14.027344 10.085938 13.695312 9.746094 C 13.464844 9.511719 10.019531 13.597656 9.578125 14.011719 C 10.148438 13.0625 11.007812 12.257812 11.683594 11.375 C 12.027344 10.925781 12.367188 10.46875 12.710938 10.015625 C 12.820312 9.871094 13.058594 9.667969 12.910156 9.460938 C 12.824219 9.347656 12.722656 9.382812 12.636719 9.464844 C 12.636719 9.464844 12.636719 9.464844 12.632812 9.46875 C 11.195312 10.835938 10.078125 12.578125 8.542969 13.839844 C 9.167969 12.820312 10.023438 11.941406 10.8125 11.054688 C 11.269531 10.539062 11.75 10.050781 12.21875 9.550781 C 12.484375 9.265625 13.433594 8.507812 13.410156 8.097656 C 13.375 7.441406 12.4375 8.480469 12.3125 8.597656 C 11.800781 9.074219 11.304688 9.578125 10.820312 10.085938 C 9.929688 11.019531 9.121094 12.039062 8.199219 12.945312 C 8.953125 11.960938 9.761719 11.015625 10.601562 10.101562 C 11.144531 9.511719 11.695312 8.925781 12.246094 8.339844 C 12.382812 8.195312 12.789062 7.910156 12.777344 7.683594 C 12.765625 7.460938 12.5625 7.382812 12.40625 7.523438 C 12.40625 7.523438 12.40625 7.527344 12.40625 7.527344 C 11.550781 8.324219 10.753906 9.1875 9.992188 10.09375 C 9.574219 10.554688 9.167969 11.027344 8.761719 11.503906 C 9.523438 10.550781 10.304688 9.625 11.113281 8.714844 C 11.359375 8.4375 12.339844 7.628906 12.304688 7.246094 C 12.25 6.597656 11.320312 7.714844 11.21875 7.816406 C 10.285156 8.796875 9.390625 9.820312 8.515625 10.851562 C 7.714844 11.796875 7.027344 12.90625 6.15625 13.78125 C 7.164062 11.519531 9.175781 9.453125 10.914062 7.734375 C 11.175781 7.476562 11.949219 6.878906 11.925781 6.472656 C 11.890625 5.816406 10.976562 6.789062 10.835938 6.910156 C 9.78125 7.863281 8.875 8.960938 7.914062 10.003906 C 8.609375 9.175781 9.273438 8.308594 10.007812 7.515625 C 10.328125 7.167969 10.6875 6.847656 10.972656 6.46875 C 11.511719 5.761719 10.839844 5.796875 10.378906 6.164062 C 8.707031 7.488281 7.625 9.492188 5.980469 10.839844 C 6.542969 9.773438 7.34375 8.746094 8.085938 7.800781 C 8.507812 7.265625 8.949219 6.746094 9.378906 6.21875 C 9.515625 6.050781 9.871094 5.757812 9.859375 5.515625 C 9.851562 5.359375 9.683594 5.175781 9.523438 5.308594 C 8.621094 6.058594 7.792969 6.898438 7.039062 7.796875 C 6.507812 8.429688 6.078125 9.296875 5.367188 9.75 C 5.75 9.007812 6.320312 8.367188 6.820312 7.707031 C 7.082031 7.359375 7.351562 7.011719 7.628906 6.671875 C 7.820312 6.4375 8.578125 5.816406 8.554688 5.507812 C 8.496094 4.800781 6.902344 6.589844 6.722656 6.78125 C 6.15625 7.382812 5.640625 8.085938 4.929688 8.527344 C 5.535156 7.574219 6.460938 6.71875 7.195312 5.855469 C 7.355469 5.691406 7.820312 5.355469 7.800781 5.097656 C 7.789062 4.855469 7.5625 4.765625 7.398438 4.925781 C 7.386719 4.9375 7.375 4.949219 7.363281 4.960938 C 7.257812 5.066406 7.15625 5.175781 7.058594 5.285156 C 7.167969 5.128906 7.234375 4.769531 6.921875 4.785156 C 7.242188 4.3125 6.703125 4.277344 6.40625 4.476562 C 5.835938 4.855469 5.378906 5.386719 4.828125 5.796875 C 4.636719 5.941406 4.027344 6.242188 3.777344 6.546875 C 3.769531 6.5 3.75 6.476562 3.738281 6.4375 C 4.164062 6.171875 4.78125 5.527344 4.890625 5.429688 Z M 3.4375 4.804688 C 3.734375 4.554688 4.03125 4.308594 4.335938 4.070312 C 4.339844 4.070312 4.34375 4.066406 4.347656 4.0625 C 4.402344 4.222656 4.550781 4.421875 4.59375 4.507812 C 4.601562 4.523438 4.714844 4.679688 4.820312 4.804688 C 4.617188 4.953125 4.382812 5.132812 4.160156 5.316406 C 4.074219 5.191406 3.597656 4.753906 3.4375 4.804688 Z M 5.183594 3.347656 C 5.308594 3.589844 5.722656 3.960938 5.804688 3.914062 C 5.628906 4.105469 5.457031 4.300781 5.261719 4.464844 C 5.191406 4.523438 5.082031 4.605469 4.960938 4.699219 C 4.871094 4.484375 4.667969 4.082031 4.511719 3.921875 C 4.738281 3.738281 4.960938 3.542969 5.183594 3.347656 Z M 5.839844 3.878906 C 5.832031 3.851562 5.828125 3.832031 5.839844 3.878906 C 5.839844 3.878906 5.839844 3.878906 5.839844 3.882812 C 5.804688 3.785156 5.539062 3.390625 5.339844 3.210938 C 5.671875 2.917969 6.023438 2.652344 6.363281 2.371094 C 6.351562 2.625 6.402344 3.039062 6.515625 3.269531 C 6.511719 3.269531 6.511719 3.269531 6.515625 3.269531 C 6.519531 3.28125 6.523438 3.300781 6.53125 3.3125 C 6.28125 3.476562 6.046875 3.660156 5.839844 3.878906 Z M 7.125 1.792969 C 7.046875 2.195312 7.105469 2.824219 7.179688 3.148438 C 7.070312 3.097656 6.972656 3.140625 6.917969 3.242188 C 6.871094 3.183594 6.8125 3.15625 6.738281 3.175781 C 6.738281 3.171875 6.738281 3.167969 6.738281 3.160156 C 6.75 3.15625 6.75 3.15625 6.738281 3.160156 C 6.714844 3.023438 6.667969 2.882812 6.664062 2.851562 C 6.636719 2.746094 6.648438 2.796875 6.660156 2.84375 C 6.589844 2.527344 6.535156 2.367188 6.488281 2.273438 C 6.695312 2.105469 6.890625 1.921875 7.113281 1.773438 C 7.109375 1.78125 7.125 1.785156 7.125 1.792969 Z M 7.875 2.347656 C 7.824219 2.578125 7.695312 3.15625 7.730469 3.53125 C 7.589844 3.4375 7.453125 3.339844 7.324219 3.230469 C 7.386719 2.960938 7.410156 2.308594 7.433594 1.898438 C 7.582031 2.066406 7.738281 2.222656 7.875 2.347656 Z M 8.832031 3.015625 C 8.789062 3.238281 8.710938 3.726562 8.699219 4.070312 C 8.441406 3.960938 8.1875 3.839844 7.945312 3.691406 C 7.941406 3.691406 7.941406 3.6875 7.9375 3.6875 C 7.980469 3.433594 8 2.949219 8.003906 2.886719 C 8.019531 2.761719 8.042969 2.640625 8.0625 2.519531 C 8.292969 2.746094 8.554688 2.894531 8.832031 3.015625 Z M 9.785156 3.332031 C 9.773438 3.34375 9.761719 3.339844 9.753906 3.390625 C 9.761719 3.359375 9.761719 3.339844 9.753906 3.390625 C 9.714844 3.640625 9.578125 4.097656 9.628906 4.421875 C 9.59375 4.410156 9.558594 4.394531 9.523438 4.382812 C 9.316406 4.3125 9.117188 4.234375 8.914062 4.152344 C 8.949219 3.90625 8.945312 3.578125 8.953125 3.503906 C 8.972656 3.363281 9 3.222656 9.03125 3.085938 C 9.191406 3.144531 9.347656 3.210938 9.519531 3.257812 C 9.609375 3.28125 9.695312 3.308594 9.785156 3.332031 Z M 10.730469 3.609375 C 10.636719 3.871094 10.464844 4.359375 10.480469 4.726562 C 10.25 4.640625 10.023438 4.558594 9.792969 4.480469 C 9.847656 4.230469 9.894531 3.800781 9.902344 3.78125 C 9.910156 3.726562 9.863281 3.4375 9.816406 3.34375 C 10.121094 3.429688 10.425781 3.515625 10.730469 3.609375 Z M 12.015625 4.46875 C 12.03125 4.304688 12.046875 4.140625 12.066406 3.976562 C 12.363281 4.050781 12.664062 4.105469 12.96875 4.152344 C 12.910156 4.257812 12.835938 4.496094 12.835938 4.539062 C 12.835938 4.625 12.835938 5.101562 12.867188 5.480469 C 12.566406 5.410156 12.269531 5.308594 11.972656 5.214844 C 12.023438 4.972656 12.007812 4.554688 12.015625 4.46875 Z M 10.929688 3.667969 C 11.242188 3.761719 11.554688 3.847656 11.871094 3.929688 C 11.835938 4.195312 11.765625 4.820312 11.789062 5.160156 C 11.421875 5.042969 11.054688 4.933594 10.695312 4.800781 C 10.738281 4.539062 10.785156 4.183594 10.800781 4.113281 C 10.835938 3.964844 10.882812 3.816406 10.929688 3.667969 Z M 14.058594 4.238281 C 14.019531 4.464844 14.027344 5.195312 14.089844 5.664062 C 13.765625 5.65625 13.4375 5.613281 13.105469 5.542969 C 13.121094 5.066406 13.042969 4.320312 13.042969 4.191406 C 13.039062 4.164062 13.03125 4.175781 13.03125 4.160156 C 13.226562 4.1875 13.417969 4.222656 13.617188 4.234375 C 13.761719 4.242188 13.910156 4.238281 14.058594 4.238281 Z M 15.101562 4.203125 C 15.058594 4.367188 15.078125 4.640625 15.074219 4.710938 C 15.074219 4.796875 15.070312 5.28125 15.136719 5.582031 C 14.863281 5.628906 14.582031 5.648438 14.296875 5.652344 C 14.285156 5.46875 14.25 5.28125 14.246094 5.21875 C 14.25 5.277344 14.253906 5.324219 14.246094 5.210938 C 14.191406 4.65625 14.152344 4.363281 14.117188 4.242188 C 14.445312 4.246094 14.773438 4.230469 15.101562 4.203125 Z M 17.910156 3.167969 C 17.914062 3.414062 17.992188 3.957031 18.089844 4.246094 C 17.832031 4.425781 17.5625 4.585938 17.285156 4.738281 C 17.328125 4.621094 17.207031 4.1875 17.207031 4.175781 C 17.191406 4.066406 17.199219 4.121094 17.203125 4.171875 C 17.167969 3.921875 17.128906 3.773438 17.089844 3.679688 C 17.132812 3.660156 17.179688 3.648438 17.222656 3.625 C 17.464844 3.496094 17.691406 3.335938 17.910156 3.167969 Z M 18.679688 2.507812 C 18.710938 2.734375 18.808594 3.527344 18.953125 3.496094 C 19.125 3.460938 18.914062 2.515625 18.898438 2.386719 C 18.890625 2.324219 18.894531 2.347656 18.898438 2.386719 C 18.890625 2.34375 18.855469 2.351562 18.832031 2.335938 C 19.199219 1.9375 19.511719 1.46875 19.945312 1.15625 C 19.988281 1.253906 20.042969 1.207031 20.089844 1.128906 C 20.117188 1.335938 20.601562 1.730469 20.988281 2.023438 C 20.882812 2.222656 20.605469 2.589844 20.523438 2.894531 C 20.457031 2.847656 20.390625 2.796875 20.328125 2.75 C 20.269531 2.710938 20.183594 2.632812 20.09375 2.578125 C 20.015625 2.179688 20.058594 1.773438 20.070312 1.367188 C 20.078125 0.992188 19.816406 1.578125 19.804688 1.691406 C 19.777344 1.945312 19.746094 2.210938 19.792969 2.464844 C 19.796875 2.492188 19.820312 2.53125 19.847656 2.566406 C 19.828125 2.578125 19.804688 2.578125 19.789062 2.597656 C 19.742188 2.660156 19.726562 2.738281 19.726562 2.816406 C 19.632812 2.882812 19.453125 3.011719 19.710938 2.828125 C 19.726562 2.816406 19.714844 2.824219 19.726562 2.816406 C 19.726562 2.820312 19.722656 2.820312 19.722656 2.824219 C 19.71875 2.824219 19.714844 2.824219 19.710938 2.828125 C 19.226562 3.175781 18.878906 3.671875 18.417969 4.042969 C 18.363281 4.089844 18.292969 4.113281 18.234375 4.15625 C 18.203125 4.023438 18.15625 3.882812 18.144531 3.832031 C 18.125 3.742188 18.128906 3.761719 18.136719 3.800781 C 18.054688 3.40625 18 3.21875 17.964844 3.132812 C 18.203125 2.945312 18.433594 2.742188 18.65625 2.535156 C 18.664062 2.527344 18.671875 2.515625 18.679688 2.507812 Z M 22.90625 3.523438 C 22.75 3.734375 22.585938 3.941406 22.46875 4.171875 C 22.472656 4.167969 22.460938 4.214844 22.445312 4.277344 C 22.257812 4.148438 22.0625 4.027344 21.882812 3.890625 C 21.796875 3.828125 21.710938 3.765625 21.625 3.703125 C 21.75 3.519531 21.878906 3.265625 21.898438 3.226562 C 21.945312 3.125 21.976562 2.585938 21.816406 2.878906 C 21.832031 2.851562 21.839844 2.835938 21.816406 2.878906 C 21.769531 2.972656 21.550781 3.304688 21.445312 3.570312 C 21.207031 3.394531 20.96875 3.21875 20.730469 3.046875 C 20.808594 2.898438 20.875 2.714844 20.886719 2.691406 C 20.988281 2.519531 21.085938 2.34375 21.179688 2.167969 C 21.257812 2.230469 21.347656 2.296875 21.382812 2.324219 C 21.878906 2.742188 22.390625 3.128906 22.90625 3.523438 Z M 23.242188 3.789062 C 23.339844 3.863281 23.429688 3.945312 23.519531 4.023438 C 23.507812 4.023438 23.492188 4.023438 23.464844 4.082031 C 23.433594 4.160156 23.328125 4.535156 23.246094 4.832031 C 23.035156 4.691406 22.828125 4.542969 22.621094 4.398438 C 22.734375 4.21875 22.828125 4.003906 22.9375 3.859375 C 22.960938 3.824219 22.992188 3.714844 23.015625 3.609375 C 23.09375 3.667969 23.167969 3.730469 23.242188 3.789062 Z M 25.773438 5.761719 C 25.785156 5.769531 25.855469 5.789062 25.933594 5.804688 C 25.714844 5.84375 25.492188 5.878906 25.273438 5.925781 C 25.171875 5.945312 25.0625 6.03125 24.992188 6.105469 C 24.980469 6.097656 24.980469 6.089844 24.964844 6.078125 C 24.828125 5.960938 24.671875 5.867188 24.527344 5.757812 C 24.628906 5.601562 24.726562 5.4375 24.753906 5.402344 C 24.785156 5.359375 24.824219 5.226562 24.839844 5.117188 C 24.90625 5.167969 24.964844 5.226562 25.035156 5.273438 C 25.269531 5.449219 25.519531 5.609375 25.773438 5.761719 Z M 24.972656 11.699219 C 24.941406 11.648438 24.90625 11.609375 24.898438 11.601562 C 24.703125 11.464844 24.457031 11.4375 24.226562 11.386719 C 24.164062 11.375 24.191406 11.378906 24.226562 11.386719 C 24.191406 11.378906 24.183594 11.421875 24.160156 11.441406 C 24.257812 10.960938 24.339844 10.484375 24.425781 10 C 24.609375 10.089844 24.972656 10.128906 25.234375 10.140625 C 25.175781 10.566406 25.117188 10.996094 25.058594 11.425781 C 25.027344 11.519531 25 11.609375 24.972656 11.699219 Z M 23.699219 14.488281 C 23.738281 14.53125 23.796875 14.59375 23.699219 14.488281 C 23.644531 14.425781 23.589844 14.445312 23.550781 14.488281 C 23.609375 14.203125 23.671875 13.921875 23.726562 13.640625 C 23.761719 13.460938 23.796875 13.277344 23.832031 13.101562 C 23.851562 13.175781 23.902344 13.269531 24.039062 13.335938 C 24.179688 13.40625 24.292969 13.496094 24.40625 13.582031 C 24.289062 13.984375 24.171875 14.382812 24.050781 14.789062 C 23.9375 14.679688 23.792969 14.589844 23.699219 14.488281 Z M 21.71875 19.804688 C 21.917969 19.460938 22.074219 19.105469 22.238281 18.746094 C 22.273438 18.867188 22.339844 18.984375 22.371094 19.039062 C 22.402344 19.085938 22.453125 19.117188 22.507812 19.140625 C 22.460938 19.242188 22.417969 19.347656 22.371094 19.449219 C 22.214844 19.738281 22.070312 20.035156 21.898438 20.3125 C 21.824219 20.257812 21.734375 20.214844 21.683594 20.128906 C 21.554688 19.984375 21.417969 20.234375 21.511719 20.34375 C 21.585938 20.425781 21.664062 20.515625 21.753906 20.585938 C 21.738281 20.609375 21.726562 20.636719 21.710938 20.664062 C 21.511719 20.96875 21.324219 21.28125 21.136719 21.589844 C 21.035156 21.414062 20.898438 21.238281 20.789062 21.226562 C 21.121094 20.765625 21.433594 20.296875 21.71875 19.804688 Z M 13.984375 14.820312 C 13.976562 14.890625 13.976562 14.964844 13.972656 15.035156 C 13.933594 15.035156 13.898438 15.035156 13.859375 15.039062 C 13.914062 14.964844 13.957031 14.894531 13.984375 14.820312 Z M 14 14.597656 C 13.988281 14.570312 13.984375 14.542969 13.960938 14.519531 C 14.011719 14.398438 14.035156 14.113281 13.808594 14.15625 C 13.894531 14.015625 13.972656 13.875 14.050781 13.734375 C 14.039062 14.023438 14.019531 14.308594 14 14.597656 Z M 17.070312 15.710938 C 17.183594 15.710938 17.292969 15.71875 17.402344 15.71875 C 17.234375 15.78125 17.03125 16.054688 16.972656 16.121094 C 17.0625 15.925781 17.082031 15.800781 17.070312 15.710938 Z M 16.558594 15.816406 C 16.582031 15.765625 16.582031 15.742188 16.597656 15.703125 C 16.636719 15.703125 16.675781 15.703125 16.71875 15.707031 C 16.664062 15.742188 16.617188 15.761719 16.558594 15.816406 Z M 15.382812 16.210938 C 15.148438 16.695312 14.730469 17.148438 14.441406 17.578125 C 14.441406 17.46875 14.441406 17.363281 14.441406 17.257812 C 14.78125 16.933594 15.054688 16.546875 15.382812 16.210938 Z M 14.589844 15.75 C 14.589844 15.746094 14.5625 15.558594 14.46875 15.558594 C 14.464844 15.558594 14.460938 15.570312 14.457031 15.570312 C 14.457031 15.554688 14.457031 15.535156 14.457031 15.519531 C 14.539062 15.519531 14.617188 15.523438 14.667969 15.53125 C 14.722656 15.535156 14.773438 15.539062 14.824219 15.546875 C 14.722656 15.628906 14.621094 15.730469 14.589844 15.75 Z M 14.445312 16.035156 C 14.488281 16.035156 14.527344 16.042969 14.605469 15.988281 C 14.597656 15.996094 14.515625 16.132812 14.441406 16.273438 C 14.441406 16.195312 14.445312 16.113281 14.445312 16.035156 Z M 16.21875 15.96875 C 16.039062 16.261719 15.828125 16.523438 15.625 16.804688 C 15.199219 17.335938 14.820312 17.90625 14.445312 18.476562 C 14.445312 18.304688 14.441406 18.132812 14.441406 17.960938 C 14.613281 17.9375 14.8125 17.617188 14.894531 17.515625 C 15.332031 16.996094 15.71875 16.429688 16.21875 15.96875 Z M 15.65625 16.214844 C 16.050781 15.238281 15.199219 15.992188 14.90625 16.347656 C 14.945312 16.289062 15.199219 15.832031 15.261719 15.597656 C 15.542969 15.632812 15.828125 15.671875 16.113281 15.695312 C 16.152344 15.699219 16.191406 15.695312 16.230469 15.695312 C 15.992188 15.882812 15.726562 16.136719 15.65625 16.214844 Z M 15.074219 19.117188 C 14.847656 19.476562 14.640625 19.851562 14.453125 20.238281 C 14.449219 19.738281 14.449219 19.242188 14.445312 18.742188 C 14.554688 18.703125 14.703125 18.613281 14.757812 18.53125 C 14.996094 18.203125 15.222656 17.863281 15.445312 17.523438 C 15.808594 17.023438 16.191406 16.550781 16.636719 16.148438 C 16.28125 16.785156 15.800781 17.382812 15.386719 17.976562 C 15.148438 18.316406 14.914062 18.65625 14.714844 19.019531 C 14.539062 19.332031 14.972656 19.214844 15.074219 19.117188 Z M 17.78125 16.710938 C 18.332031 15.609375 17.554688 16.195312 17.09375 16.714844 C 17.207031 16.546875 17.679688 16.003906 17.585938 15.789062 C 17.558594 15.726562 17.515625 15.722656 17.476562 15.714844 C 17.902344 15.703125 18.332031 15.679688 18.757812 15.667969 C 18.957031 15.660156 19.15625 15.640625 19.355469 15.625 C 18.933594 16.089844 18.523438 16.566406 18.140625 17.066406 C 18.25 16.703125 18.15625 16.359375 17.78125 16.710938 Z M 22.78125 17.367188 C 22.835938 17.515625 22.960938 17.644531 23.089844 17.71875 C 22.941406 18.117188 22.78125 18.503906 22.617188 18.886719 C 22.535156 18.726562 22.449219 18.550781 22.367188 18.476562 C 22.523438 18.113281 22.65625 17.742188 22.78125 17.367188 Z M 23.535156 14.695312 C 23.664062 14.832031 23.824219 14.941406 23.960938 15.074219 C 23.90625 15.253906 23.851562 15.433594 23.792969 15.613281 C 23.3125 14.8125 23.339844 15.554688 23.675781 15.996094 C 23.519531 16.5 23.347656 16.992188 23.171875 17.484375 C 23.089844 17.3125 22.972656 17.136719 22.867188 17.128906 C 23.070312 16.496094 23.25 15.855469 23.402344 15.203125 C 23.566406 15.105469 23.652344 15.003906 23.449219 14.972656 C 23.472656 14.863281 23.496094 14.753906 23.515625 14.644531 C 23.523438 14.660156 23.523438 14.679688 23.535156 14.695312 Z M 24.578125 13.011719 C 24.550781 13.097656 24.527344 13.183594 24.5 13.269531 C 24.496094 13.269531 24.496094 13.265625 24.5 13.269531 C 24.5 13.273438 24.5 13.273438 24.5 13.277344 C 24.324219 13.171875 24.125 13.113281 23.960938 12.984375 C 23.921875 12.953125 23.886719 12.949219 23.859375 12.964844 C 23.949219 12.507812 24.039062 12.046875 24.132812 11.585938 C 24.148438 11.613281 24.136719 11.65625 24.175781 11.664062 C 24.421875 11.71875 24.664062 11.867188 24.90625 11.925781 C 24.796875 12.289062 24.683594 12.65625 24.578125 13.011719 Z M 25.5625 8.527344 C 25.472656 8.480469 25.386719 8.441406 25.359375 8.4375 C 25.121094 8.410156 24.894531 8.453125 24.660156 8.460938 C 24.699219 8.460938 24.707031 8.460938 24.648438 8.460938 C 24.652344 8.460938 24.65625 8.460938 24.660156 8.460938 C 24.65625 8.460938 24.65625 8.460938 24.652344 8.460938 C 24.699219 8.113281 24.765625 7.765625 24.800781 7.417969 C 24.792969 7.445312 24.785156 7.46875 24.800781 7.5 C 24.910156 7.730469 25.445312 7.601562 25.773438 7.492188 C 25.765625 7.546875 25.753906 7.605469 25.746094 7.660156 C 25.707031 7.953125 25.632812 8.242188 25.5625 8.527344 Z M 24.457031 9.777344 C 24.527344 9.386719 24.570312 9 24.628906 8.613281 C 24.699219 8.65625 24.792969 8.695312 24.886719 8.6875 C 24.980469 8.679688 25.292969 8.75 25.507812 8.792969 C 25.417969 9.164062 25.332031 9.53125 25.273438 9.902344 C 25.011719 9.773438 24.65625 9.707031 24.457031 9.777344 Z M 23.546875 4.042969 C 23.945312 4.371094 24.339844 4.710938 24.746094 5.035156 C 24.691406 5.109375 24.484375 5.371094 24.335938 5.617188 C 24.007812 5.375 23.683594 5.128906 23.34375 4.898438 C 23.410156 4.757812 23.472656 4.609375 23.523438 4.496094 C 23.554688 4.425781 23.574219 4.136719 23.546875 4.042969 Z M 18.183594 4.859375 C 18.65625 4.507812 19.097656 4.113281 19.527344 3.710938 C 19.667969 3.578125 19.917969 3.398438 20.015625 3.203125 C 20.960938 3.898438 21.878906 4.632812 22.824219 5.320312 C 23.28125 5.648438 23.765625 5.921875 24.21875 6.246094 C 24.265625 6.28125 24.34375 6.308594 24.433594 6.328125 C 24.265625 6.664062 24.332031 7.4375 24.28125 7.773438 C 24.113281 8.902344 23.890625 10.019531 23.710938 11.148438 C 23.515625 12.390625 23.320312 13.664062 23.054688 14.914062 C 22.625 14.855469 22.808594 14.882812 23.054688 14.914062 C 23.050781 14.925781 23.046875 14.9375 23.046875 14.945312 C 22.132812 14.871094 21.199219 14.929688 20.265625 15.027344 C 20.246094 14.964844 20.164062 14.972656 20.027344 15.054688 C 19.351562 15.125 18.675781 15.199219 18.019531 15.226562 C 17.074219 15.261719 16.148438 15.261719 15.207031 15.152344 C 15.144531 15.144531 14.824219 15.097656 14.46875 15.0625 C 14.472656 14.863281 14.480469 14.664062 14.484375 14.460938 C 14.636719 14.277344 14.5625 13.773438 14.5625 13.625 C 14.5625 13.242188 14.542969 12.855469 14.53125 12.472656 C 14.539062 12.335938 14.535156 12.195312 14.542969 12.058594 C 14.542969 12.042969 14.523438 12.046875 14.519531 12.035156 C 14.511719 11.730469 14.507812 11.425781 14.496094 11.121094 C 14.433594 9.503906 14.351562 7.886719 14.421875 6.269531 C 14.449219 6.269531 14.480469 6.277344 14.507812 6.277344 C 15.835938 6.238281 17.128906 5.644531 18.183594 4.859375 Z M 16.980469 4.148438 C 17.007812 4.320312 17.027344 4.574219 17.15625 4.710938 C 17.21875 4.777344 17.246094 4.769531 17.269531 4.75 C 17.121094 4.832031 16.984375 4.941406 16.835938 5.015625 C 16.660156 5.105469 16.484375 5.164062 16.304688 5.238281 C 16.289062 5.03125 16.238281 4.75 16.234375 4.714844 C 16.238281 4.769531 16.242188 4.808594 16.230469 4.710938 C 16.222656 4.566406 16.226562 4.636719 16.230469 4.703125 C 16.214844 4.472656 16.226562 4.238281 16.230469 4.007812 C 16.480469 3.9375 16.722656 3.84375 16.957031 3.734375 C 16.953125 3.832031 16.957031 3.972656 16.980469 4.148438 Z M 15.328125 4.222656 C 15.34375 4.066406 15.28125 4.742188 15.328125 4.222656 C 15.328125 4.199219 15.296875 4.207031 15.289062 4.1875 C 15.535156 4.160156 15.773438 4.109375 16.011719 4.054688 C 15.992188 4.417969 15.953125 5 16.15625 5.300781 C 15.886719 5.402344 15.613281 5.476562 15.335938 5.535156 C 15.351562 5.105469 15.316406 4.34375 15.328125 4.222656 Z M 15.605469 21.324219 C 15.292969 21.910156 14.996094 22.5 14.703125 23.097656 C 14.652344 23.179688 14.542969 23.347656 14.421875 23.539062 C 14.4375 22.628906 14.460938 21.722656 14.457031 20.816406 C 14.453125 20.730469 14.453125 20.640625 14.453125 20.550781 C 14.507812 20.59375 14.582031 20.601562 14.644531 20.53125 C 14.84375 20.304688 15.035156 20.070312 15.214844 19.824219 C 15.941406 18.851562 16.542969 17.785156 17.359375 16.878906 C 17.179688 17.210938 16.984375 17.535156 16.777344 17.851562 C 16.488281 18.234375 16.21875 18.640625 15.957031 19.054688 C 15.632812 19.523438 15.304688 19.988281 15.003906 20.476562 C 14.882812 20.667969 14.769531 20.863281 14.660156 21.0625 C 14.578125 21.210938 14.796875 21.414062 14.910156 21.253906 C 15.589844 20.292969 16.1875 19.273438 16.84375 18.292969 C 17.136719 17.878906 17.453125 17.488281 17.792969 17.144531 C 17.574219 17.644531 17.128906 18 16.871094 18.476562 C 16.488281 19.175781 16.066406 19.855469 15.636719 20.53125 C 15.429688 20.859375 14.640625 21.734375 14.695312 22.121094 C 14.777344 22.675781 15.523438 21.441406 15.605469 21.324219 Z M 19.730469 20.375 C 20.164062 19.710938 20.613281 19.058594 21.070312 18.414062 C 21.15625 18.320312 21.242188 18.230469 21.324219 18.136719 C 21.054688 18.570312 20.789062 19.007812 20.535156 19.449219 C 20.269531 19.761719 20 20.066406 19.730469 20.375 Z M 19.890625 20.835938 C 19.894531 20.84375 19.902344 20.839844 19.910156 20.84375 C 19.78125 20.988281 19.644531 21.128906 19.511719 21.273438 C 19.636719 21.128906 19.765625 20.980469 19.890625 20.835938 Z M 16.871094 23.675781 C 16.734375 23.835938 16.160156 24.34375 16.082031 24.683594 C 15.957031 24.792969 15.84375 24.914062 15.71875 25.019531 C 15.988281 24.617188 16.238281 24.195312 16.308594 24.089844 C 17.1875 23.011719 18.027344 21.902344 18.929688 20.84375 C 18.28125 21.820312 17.605469 22.78125 16.871094 23.675781 Z M 21.722656 18.769531 C 21.398438 19.152344 21.058594 19.527344 20.726562 19.910156 C 20.761719 19.851562 20.785156 19.804688 20.800781 19.78125 C 21.125 19.398438 21.4375 19.007812 21.722656 18.59375 C 21.78125 18.511719 22.554688 17.171875 21.910156 17.519531 C 21.871094 17.542969 21.832031 17.570312 21.792969 17.597656 C 21.917969 17.445312 22.183594 16.589844 21.78125 16.976562 C 21.488281 17.25 21.253906 17.574219 21.019531 17.894531 C 20.304688 18.660156 19.621094 19.441406 18.941406 20.234375 C 19.550781 19.382812 20.175781 18.542969 20.8125 17.714844 C 21.09375 17.34375 21.378906 16.976562 21.667969 16.613281 C 21.972656 16.230469 21.933594 15.804688 21.4375 16.238281 C 20.113281 17.398438 19.125 18.894531 18.046875 20.269531 C 18.699219 19.261719 19.3125 18.207031 20.0625 17.265625 C 20.410156 16.832031 20.78125 16.417969 21.140625 15.996094 C 21.671875 15.363281 21.113281 15.40625 20.683594 15.761719 C 19.835938 16.457031 19.175781 17.433594 18.46875 18.261719 C 17.675781 19.195312 16.914062 20.15625 16.144531 21.109375 C 17.234375 19.121094 18.78125 17.480469 19.976562 15.578125 C 20.515625 15.53125 21.054688 15.484375 21.59375 15.472656 C 22.011719 15.464844 22.4375 15.5 22.851562 15.445312 C 22.863281 15.445312 22.898438 15.433594 22.9375 15.417969 C 22.769531 16.148438 22.574219 16.867188 22.316406 17.5625 C 22.164062 17.972656 21.972656 18.371094 21.777344 18.765625 C 21.757812 18.769531 21.742188 18.75 21.722656 18.769531 Z M 20.3125 22.785156 C 20.234375 22.5625 20.128906 22.371094 20.097656 22.117188 C 20.304688 21.863281 20.503906 21.605469 20.699219 21.339844 C 20.6875 21.515625 20.839844 21.691406 21.003906 21.800781 C 20.863281 22.035156 20.703125 22.257812 20.550781 22.484375 C 20.476562 22.585938 20.390625 22.683594 20.3125 22.785156 Z M 19.421875 23.859375 C 19.355469 23.9375 19.28125 24.007812 19.214844 24.085938 C 19.203125 24.03125 19.207031 24.007812 19.191406 23.945312 C 19.164062 23.832031 19.175781 23.886719 19.191406 23.9375 C 19.164062 23.820312 19.148438 23.476562 19.066406 23.292969 C 19.339844 23.003906 19.609375 22.710938 19.867188 22.40625 C 19.894531 22.582031 19.933594 22.753906 20.03125 22.894531 C 20.050781 22.921875 20.097656 22.957031 20.148438 22.984375 C 20.066406 23.089844 19.984375 23.191406 19.898438 23.296875 C 19.730469 23.441406 19.554688 23.582031 19.421875 23.761719 C 19.378906 23.816406 19.390625 23.84375 19.421875 23.859375 Z M 26.035156 6.273438 C 26.011719 6.292969 25.980469 6.296875 25.980469 6.335938 C 25.980469 6.386719 25.96875 6.4375 25.96875 6.488281 C 25.894531 6.769531 25.835938 7.054688 25.796875 7.34375 C 25.464844 7.289062 24.910156 7.253906 24.804688 7.394531 C 24.816406 7.289062 24.84375 7.183594 24.851562 7.078125 C 24.855469 7.03125 24.867188 6.628906 24.808594 6.359375 C 24.953125 6.351562 25.058594 6.308594 25.0625 6.234375 C 25.355469 6.160156 25.65625 6.140625 25.953125 6.078125 C 25.984375 6.070312 26.046875 6.03125 26.109375 5.988281 C 26.0625 6.089844 26.023438 6.171875 26.109375 5.984375 C 26.117188 5.980469 26.121094 5.976562 26.125 5.972656 C 26.085938 6.070312 26.066406 6.175781 26.035156 6.273438 Z M 26.21875 5.757812 C 26.207031 5.734375 26.21875 5.71875 26.171875 5.679688 C 25.195312 4.851562 24.105469 4.0625 23.070312 3.292969 C 22.542969 2.902344 22.027344 2.496094 21.523438 2.074219 C 21.375 1.953125 20.425781 1.042969 20.140625 1.027344 C 20.1875 0.863281 20.171875 0.675781 19.957031 0.792969 C 19.441406 1.066406 19.15625 1.613281 18.777344 2.027344 C 18.386719 2.457031 17.925781 2.808594 17.453125 3.140625 C 16.410156 3.875 15.117188 3.871094 13.898438 3.9375 C 12.648438 4 11.4375 3.53125 10.265625 3.167969 C 9.671875 2.984375 9.03125 2.902344 8.5 2.554688 C 8.324219 2.4375 7.695312 1.667969 7.382812 1.5 C 7.359375 1.484375 7.367188 1.441406 7.328125 1.445312 C 7.316406 1.445312 7.3125 1.460938 7.304688 1.464844 C 7.285156 1.460938 7.25 1.429688 7.234375 1.433594 C 7.230469 1.4375 7.238281 1.445312 7.234375 1.445312 C 7.207031 1.429688 7.175781 1.410156 7.132812 1.4375 C 6.210938 2.039062 5.441406 2.839844 4.597656 3.542969 C 4.261719 3.824219 2.0625 5.273438 2.230469 5.738281 C 2.332031 6.019531 2.992188 5.179688 3.097656 5.082031 C 3.1875 5 3.289062 4.929688 3.382812 4.851562 C 3.339844 5.144531 3.824219 5.375 4.0625 5.402344 C 3.726562 5.6875 3.445312 5.980469 3.363281 6.222656 C 3.355469 6.242188 3.34375 6.269531 3.335938 6.300781 C 3.335938 6.308594 3.328125 6.320312 3.324219 6.332031 C 3.324219 6.335938 3.328125 6.335938 3.328125 6.335938 C 3.261719 6.609375 3.273438 7.027344 3.277344 7.078125 C 3.40625 8.519531 3.679688 9.972656 3.964844 11.417969 C 3.757812 11.476562 3.539062 11.585938 3.355469 11.648438 C 3.25 11.679688 3.183594 11.746094 3.136719 11.8125 C 2.898438 10.640625 2.816406 9.441406 2.605469 8.261719 C 2.507812 7.726562 2.421875 7.1875 2.414062 6.644531 C 2.414062 6.492188 2.542969 5.984375 2.410156 5.867188 C 2.167969 5.660156 2.183594 6.324219 2.1875 6.289062 C 2.117188 7.542969 2.492188 8.808594 2.644531 10.050781 C 2.789062 11.214844 3.03125 12.339844 3.269531 13.488281 C 3.753906 15.835938 4.320312 18.28125 5.457031 20.414062 C 5.972656 21.382812 6.714844 22.089844 7.425781 22.90625 C 7.785156 23.320312 8.105469 23.734375 8.4375 24.132812 C 8.449219 24.160156 8.441406 24.21875 8.476562 24.21875 C 8.484375 24.21875 8.492188 24.207031 8.5 24.203125 C 8.847656 24.609375 9.207031 25.003906 9.652344 25.363281 C 10.496094 26.050781 11.144531 26.964844 12.082031 27.53125 C 12.355469 27.691406 12.609375 27.832031 12.886719 27.953125 C 12.890625 28.042969 12.960938 28.0625 13.035156 28.019531 C 13.082031 28.039062 13.121094 28.0625 13.171875 28.078125 C 13.253906 28.109375 14.636719 28.503906 14.289062 28.128906 C 14.269531 28.097656 14.257812 28.070312 14.238281 28.042969 C 14.234375 27.996094 14.203125 28.003906 14.179688 27.984375 C 14.203125 27.921875 14.222656 27.863281 14.238281 27.726562 C 14.292969 27.257812 14.097656 27.113281 14.023438 27.582031 C 13.996094 27.765625 14.019531 27.933594 14.054688 28.039062 C 14.046875 28.054688 14.027344 28.054688 14.027344 28.074219 C 13.738281 28.027344 13.445312 27.933594 13.15625 27.820312 C 13.21875 27.59375 13.214844 27.347656 13.230469 27.113281 C 13.230469 27.09375 13.226562 27.039062 13.21875 26.976562 C 13.375 27.082031 13.539062 27.175781 13.714844 27.238281 C 13.839844 27.277344 13.9375 27.25 14.011719 27.199219 C 14.050781 27.257812 14.101562 27.261719 14.164062 27.230469 C 14.234375 27.257812 14.316406 27.269531 14.414062 27.238281 C 14.691406 27.144531 14.9375 26.964844 15.167969 26.777344 C 15.167969 26.816406 15.160156 26.820312 15.160156 26.875 C 15.164062 27.074219 15.222656 27.242188 15.277344 27.335938 C 15.144531 27.410156 15.015625 27.5 14.878906 27.574219 C 14.75 27.636719 14.28125 27.757812 14.261719 27.9375 C 14.226562 28.234375 14.628906 27.984375 14.679688 27.957031 C 17.550781 26.609375 20.101562 24.035156 21.769531 21.175781 C 22.289062 20.375 22.886719 19.257812 22.953125 19.101562 C 23.222656 18.476562 23.464844 17.828125 23.699219 17.179688 C 23.785156 16.972656 23.871094 16.761719 23.949219 16.550781 C 24.027344 16.34375 24.105469 16.136719 24.179688 15.929688 C 24.191406 15.90625 24.164062 15.890625 24.160156 15.867188 C 24.328125 15.363281 24.503906 14.855469 24.660156 14.351562 C 24.960938 13.394531 25.121094 12.425781 25.273438 11.453125 C 25.507812 10.589844 25.746094 9.730469 25.921875 8.855469 C 26.027344 8.335938 26.109375 7.8125 26.152344 7.285156 C 26.171875 7.054688 26.175781 6.824219 26.183594 6.59375 C 26.207031 6.5 26.207031 6.402344 26.238281 6.3125 C 26.234375 6.320312 26.265625 6.007812 26.242188 5.878906 C 26.324219 5.796875 26.355469 5.734375 26.21875 5.757812 " fill-opacity="1" fill-rule="nonzero"/></g><path fill="#007a3f" d="M 23.699219 14.488281 C 23.671875 14.460938 23.652344 14.4375 23.699219 14.488281 " fill-opacity="1" fill-rule="nonzero"/><path fill="#007a3f" d="M 19.191406 23.9375 C 19.191406 23.9375 19.191406 23.941406 19.191406 23.945312 C 19.214844 24.03125 19.203125 23.984375 19.191406 23.9375 " fill-opacity="1" fill-rule="nonzero"/><g clip-path="url(#6cc17a34f3)"><g transform="matrix(1, 0, 0, 1, 29, 1)"><g clip-path="url(#c6cc084fdd)"><g fill="#ffffff" fill-opacity="1"><g transform="translate(0.40645, 20.338408)"><g><path d="M 5.671875 0.1875 C 4.859375 0.1875 4.125 0.078125 3.46875 -0.140625 C 2.820312 -0.367188 2.28125 -0.660156 1.84375 -1.015625 C 1.414062 -1.378906 1.097656 -1.78125 0.890625 -2.21875 L 1.71875 -3.21875 L 1.9375 -3.21875 C 2.75 -1.863281 3.992188 -1.1875 5.671875 -1.1875 C 6.648438 -1.1875 7.375 -1.390625 7.84375 -1.796875 C 8.320312 -2.210938 8.5625 -2.785156 8.5625 -3.515625 C 8.5625 -3.929688 8.484375 -4.285156 8.328125 -4.578125 C 8.171875 -4.878906 7.910156 -5.132812 7.546875 -5.34375 C 7.191406 -5.5625 6.703125 -5.742188 6.078125 -5.890625 L 4.5625 -6.265625 C 3.4375 -6.535156 2.601562 -6.96875 2.0625 -7.5625 C 1.53125 -8.164062 1.265625 -8.921875 1.265625 -9.828125 C 1.265625 -10.472656 1.425781 -11.046875 1.75 -11.546875 C 2.082031 -12.054688 2.566406 -12.453125 3.203125 -12.734375 C 3.847656 -13.023438 4.613281 -13.171875 5.5 -13.171875 C 6.476562 -13.171875 7.300781 -13.03125 7.96875 -12.75 C 8.644531 -12.476562 9.1875 -12.066406 9.59375 -11.515625 L 8.84375 -10.515625 L 8.625 -10.515625 C 8.25 -10.972656 7.804688 -11.304688 7.296875 -11.515625 C 6.785156 -11.734375 6.1875 -11.84375 5.5 -11.84375 C 4.601562 -11.84375 3.925781 -11.664062 3.46875 -11.3125 C 3.007812 -10.96875 2.78125 -10.484375 2.78125 -9.859375 C 2.78125 -9.273438 2.945312 -8.8125 3.28125 -8.46875 C 3.625 -8.125 4.191406 -7.851562 4.984375 -7.65625 L 6.546875 -7.296875 C 7.804688 -6.992188 8.71875 -6.535156 9.28125 -5.921875 C 9.84375 -5.316406 10.125 -4.535156 10.125 -3.578125 C 10.125 -2.847656 9.957031 -2.195312 9.625 -1.625 C 9.300781 -1.0625 8.804688 -0.617188 8.140625 -0.296875 C 7.472656 0.0234375 6.648438 0.1875 5.671875 0.1875 Z M 5.671875 0.1875 "/></g></g></g><g fill="#ffffff" fill-opacity="1"><g transform="translate(11.535982, 20.338408)"><g><path d="M 1.703125 0 L 1.703125 -13.734375 L 3.15625 -13.734375 L 3.15625 -8.40625 L 3.34375 -8.359375 C 4.039062 -9.441406 5.050781 -9.984375 6.375 -9.984375 C 7.550781 -9.984375 8.398438 -9.679688 8.921875 -9.078125 C 9.453125 -8.472656 9.71875 -7.550781 9.71875 -6.3125 L 9.71875 0 L 8.28125 0 L 8.28125 -6.265625 C 8.28125 -6.859375 8.203125 -7.332031 8.046875 -7.6875 C 7.898438 -8.050781 7.664062 -8.3125 7.34375 -8.46875 C 7.03125 -8.632812 6.613281 -8.71875 6.09375 -8.71875 C 5.207031 -8.71875 4.492188 -8.429688 3.953125 -7.859375 C 3.421875 -7.285156 3.15625 -6.34375 3.15625 -5.03125 L 3.15625 0 Z M 1.703125 0 "/></g></g></g><g fill="#ffffff" fill-opacity="1"><g transform="translate(22.81651, 20.338408)"><g><path d="M 2.4375 -11.6875 C 2.125 -11.6875 1.867188 -11.78125 1.671875 -11.96875 C 1.484375 -12.164062 1.390625 -12.410156 1.390625 -12.703125 C 1.390625 -13.003906 1.484375 -13.25 1.671875 -13.4375 C 1.867188 -13.632812 2.125 -13.734375 2.4375 -13.734375 C 2.738281 -13.734375 2.984375 -13.632812 3.171875 -13.4375 C 3.367188 -13.25 3.46875 -13.003906 3.46875 -12.703125 C 3.46875 -12.410156 3.367188 -12.164062 3.171875 -11.96875 C 2.984375 -11.78125 2.738281 -11.6875 2.4375 -11.6875 Z M 1.703125 0 L 1.703125 -9.796875 L 3.15625 -9.796875 L 3.15625 0 Z M 1.703125 0 "/></g></g></g><g fill="#ffffff" fill-opacity="1"><g transform="translate(27.675134, 20.338408)"><g><path d="M 9.328125 -4.5625 L 2.609375 -4.5625 C 2.648438 -3.375 2.929688 -2.5 3.453125 -1.9375 C 3.984375 -1.382812 4.710938 -1.109375 5.640625 -1.109375 C 6.335938 -1.109375 6.898438 -1.234375 7.328125 -1.484375 C 7.753906 -1.734375 8.085938 -2.125 8.328125 -2.65625 L 8.515625 -2.65625 L 9.453125 -2.09375 C 9.171875 -1.382812 8.71875 -0.828125 8.09375 -0.421875 C 7.46875 -0.015625 6.648438 0.1875 5.640625 0.1875 C 4.691406 0.1875 3.875 0 3.1875 -0.375 C 2.507812 -0.75 1.988281 -1.3125 1.625 -2.0625 C 1.257812 -2.820312 1.078125 -3.765625 1.078125 -4.890625 C 1.078125 -6.003906 1.269531 -6.941406 1.65625 -7.703125 C 2.039062 -8.472656 2.566406 -9.046875 3.234375 -9.421875 C 3.910156 -9.796875 4.679688 -9.984375 5.546875 -9.984375 C 6.804688 -9.984375 7.785156 -9.628906 8.484375 -8.921875 C 9.191406 -8.210938 9.550781 -7.160156 9.5625 -5.765625 C 9.5625 -5.222656 9.546875 -4.859375 9.515625 -4.671875 Z M 8.125 -5.765625 C 8.101562 -6.804688 7.875 -7.5625 7.4375 -8.03125 C 7 -8.507812 6.367188 -8.75 5.546875 -8.75 C 4.691406 -8.75 4.019531 -8.507812 3.53125 -8.03125 C 3.039062 -7.5625 2.742188 -6.804688 2.640625 -5.765625 Z M 8.125 -5.765625 "/></g></g></g><g fill="#ffffff" fill-opacity="1"><g transform="translate(38.120726, 20.338408)"><g><path d="M 3.90625 0.1875 C 3.207031 0.1875 2.660156 -0.0078125 2.265625 -0.40625 C 1.867188 -0.800781 1.671875 -1.390625 1.671875 -2.171875 L 1.671875 -13.734375 L 3.109375 -13.734375 L 3.109375 -2.265625 C 3.109375 -1.859375 3.1875 -1.5625 3.34375 -1.375 C 3.507812 -1.195312 3.753906 -1.109375 4.078125 -1.109375 C 4.285156 -1.109375 4.492188 -1.140625 4.703125 -1.203125 L 4.828125 -1.171875 L 4.984375 -0.03125 C 4.878906 0.0390625 4.726562 0.09375 4.53125 0.125 C 4.332031 0.164062 4.125 0.1875 3.90625 0.1875 Z M 3.90625 0.1875 "/></g></g></g><g fill="#ffffff" fill-opacity="1"><g transform="translate(43.450109, 20.338408)"><g><path d="M 5.078125 0.1875 C 4.296875 0.1875 3.601562 0 3 -0.375 C 2.394531 -0.75 1.921875 -1.316406 1.578125 -2.078125 C 1.242188 -2.835938 1.078125 -3.773438 1.078125 -4.890625 C 1.078125 -6.015625 1.253906 -6.957031 1.609375 -7.71875 C 1.960938 -8.476562 2.453125 -9.046875 3.078125 -9.421875 C 3.703125 -9.796875 4.425781 -9.984375 5.25 -9.984375 C 5.894531 -9.984375 6.476562 -9.859375 7 -9.609375 C 7.519531 -9.367188 7.96875 -8.96875 8.34375 -8.40625 L 8.53125 -8.4375 L 8.53125 -13.734375 L 9.984375 -13.734375 L 9.984375 0 L 8.53125 0 L 8.53125 -1.4375 L 8.34375 -1.46875 C 8.03125 -0.976562 7.597656 -0.578125 7.046875 -0.265625 C 6.492188 0.0351562 5.835938 0.1875 5.078125 0.1875 Z M 5.53125 -1.109375 C 6.445312 -1.109375 7.175781 -1.421875 7.71875 -2.046875 C 8.257812 -2.671875 8.53125 -3.617188 8.53125 -4.890625 C 8.53125 -6.171875 8.257812 -7.125 7.71875 -7.75 C 7.175781 -8.375 6.445312 -8.6875 5.53125 -8.6875 C 4.59375 -8.6875 3.867188 -8.378906 3.359375 -7.765625 C 2.847656 -7.160156 2.59375 -6.203125 2.59375 -4.890625 C 2.59375 -2.367188 3.570312 -1.109375 5.53125 -1.109375 Z M 5.53125 -1.109375 "/></g></g></g><g fill="#ffffff" fill-opacity="1"><g transform="translate(55.148108, 20.338408)"><g/></g></g><g fill="#ffffff" fill-opacity="1"><g transform="translate(59.607026, 20.338408)"><g><path d="M 6.15625 -12.984375 C 7.476562 -12.984375 8.609375 -12.75 9.546875 -12.28125 C 10.492188 -11.8125 11.222656 -11.09375 11.734375 -10.125 C 12.242188 -9.15625 12.5 -7.941406 12.5 -6.484375 C 12.5 -5.035156 12.242188 -3.828125 11.734375 -2.859375 C 11.222656 -1.890625 10.492188 -1.171875 9.546875 -0.703125 C 8.609375 -0.234375 7.476562 0 6.15625 0 L 1.96875 0 L 1.96875 -12.984375 Z M 6.015625 -1.296875 C 7.097656 -1.296875 7.992188 -1.460938 8.703125 -1.796875 C 9.410156 -2.140625 9.945312 -2.691406 10.3125 -3.453125 C 10.6875 -4.210938 10.875 -5.222656 10.875 -6.484375 C 10.875 -7.753906 10.6875 -8.769531 10.3125 -9.53125 C 9.945312 -10.289062 9.410156 -10.835938 8.703125 -11.171875 C 7.992188 -11.515625 7.097656 -11.6875 6.015625 -11.6875 L 3.484375 -11.6875 L 3.484375 -1.296875 Z M 6.015625 -1.296875 "/></g></g></g><g fill="#ffffff" fill-opacity="1"><g transform="translate(73.410129, 20.338408)"><g><path d="M 5.625 0.1875 C 4.695312 0.1875 3.890625 -0.00390625 3.203125 -0.390625 C 2.523438 -0.785156 2 -1.363281 1.625 -2.125 C 1.257812 -2.882812 1.078125 -3.804688 1.078125 -4.890625 C 1.078125 -5.972656 1.257812 -6.894531 1.625 -7.65625 C 2 -8.425781 2.523438 -9.003906 3.203125 -9.390625 C 3.890625 -9.785156 4.695312 -9.984375 5.625 -9.984375 C 6.539062 -9.984375 7.34375 -9.785156 8.03125 -9.390625 C 8.71875 -9.003906 9.242188 -8.425781 9.609375 -7.65625 C 9.984375 -6.894531 10.171875 -5.972656 10.171875 -4.890625 C 10.171875 -3.804688 9.984375 -2.882812 9.609375 -2.125 C 9.242188 -1.363281 8.71875 -0.785156 8.03125 -0.390625 C 7.34375 -0.00390625 6.539062 0.1875 5.625 0.1875 Z M 5.625 -1.109375 C 6.601562 -1.109375 7.347656 -1.414062 7.859375 -2.03125 C 8.378906 -2.644531 8.640625 -3.597656 8.640625 -4.890625 C 8.640625 -6.191406 8.378906 -7.148438 7.859375 -7.765625 C 7.347656 -8.378906 6.601562 -8.6875 5.625 -8.6875 C 4.644531 -8.6875 3.894531 -8.375 3.375 -7.75 C 2.851562 -7.132812 2.59375 -6.179688 2.59375 -4.890625 C 2.59375 -3.597656 2.851562 -2.644531 3.375 -2.03125 C 3.894531 -1.414062 4.644531 -1.109375 5.625 -1.109375 Z M 5.625 -1.109375 "/></g></g></g><g fill="#ffffff" fill-opacity="1"><g transform="translate(84.655128, 20.338408)"><g><path d="M 5.625 0.1875 C 4.757812 0.1875 3.984375 -0.0078125 3.296875 -0.40625 C 2.609375 -0.800781 2.066406 -1.378906 1.671875 -2.140625 C 1.273438 -2.910156 1.078125 -3.828125 1.078125 -4.890625 C 1.078125 -5.960938 1.273438 -6.878906 1.671875 -7.640625 C 2.066406 -8.410156 2.609375 -8.992188 3.296875 -9.390625 C 3.984375 -9.785156 4.757812 -9.984375 5.625 -9.984375 C 6.65625 -9.984375 7.476562 -9.785156 8.09375 -9.390625 C 8.707031 -9.003906 9.148438 -8.484375 9.421875 -7.828125 L 8.4375 -7.125 L 8.265625 -7.125 C 7.992188 -7.664062 7.648438 -8.0625 7.234375 -8.3125 C 6.816406 -8.5625 6.28125 -8.6875 5.625 -8.6875 C 5.019531 -8.6875 4.488281 -8.539062 4.03125 -8.25 C 3.570312 -7.96875 3.21875 -7.539062 2.96875 -6.96875 C 2.71875 -6.40625 2.59375 -5.710938 2.59375 -4.890625 C 2.59375 -4.078125 2.71875 -3.382812 2.96875 -2.8125 C 3.226562 -2.25 3.582031 -1.820312 4.03125 -1.53125 C 4.488281 -1.25 5.019531 -1.109375 5.625 -1.109375 C 6.300781 -1.109375 6.863281 -1.257812 7.3125 -1.5625 C 7.757812 -1.875 8.109375 -2.363281 8.359375 -3.03125 L 8.546875 -3.03125 L 9.5 -2.46875 C 9.25 -1.644531 8.796875 -0.992188 8.140625 -0.515625 C 7.484375 -0.046875 6.644531 0.1875 5.625 0.1875 Z M 5.625 0.1875 "/></g></g></g><g fill="#ffffff" fill-opacity="1"><g transform="translate(94.754307, 20.338408)"><g><path d="M 4.46875 0.1875 C 3.851562 0.1875 3.28125 0.109375 2.75 -0.046875 C 2.226562 -0.210938 1.785156 -0.4375 1.421875 -0.71875 C 1.066406 -1.007812 0.816406 -1.332031 0.671875 -1.6875 L 1.515625 -2.578125 L 1.703125 -2.578125 C 2.023438 -2.085938 2.410156 -1.71875 2.859375 -1.46875 C 3.304688 -1.226562 3.84375 -1.109375 4.46875 -1.109375 C 5.1875 -1.109375 5.734375 -1.25 6.109375 -1.53125 C 6.484375 -1.8125 6.671875 -2.203125 6.671875 -2.703125 C 6.671875 -3.085938 6.554688 -3.40625 6.328125 -3.65625 C 6.109375 -3.914062 5.742188 -4.109375 5.234375 -4.234375 L 3.578125 -4.640625 C 2.691406 -4.847656 2.046875 -5.179688 1.640625 -5.640625 C 1.234375 -6.109375 1.03125 -6.679688 1.03125 -7.359375 C 1.03125 -7.890625 1.164062 -8.351562 1.4375 -8.75 C 1.71875 -9.144531 2.113281 -9.445312 2.625 -9.65625 C 3.132812 -9.875 3.742188 -9.984375 4.453125 -9.984375 C 5.347656 -9.984375 6.054688 -9.859375 6.578125 -9.609375 C 7.097656 -9.359375 7.5 -9.003906 7.78125 -8.546875 L 6.96875 -7.75 L 6.796875 -7.75 C 6.484375 -8.113281 6.140625 -8.375 5.765625 -8.53125 C 5.398438 -8.695312 4.960938 -8.78125 4.453125 -8.78125 C 3.804688 -8.78125 3.3125 -8.660156 2.96875 -8.421875 C 2.625 -8.191406 2.453125 -7.859375 2.453125 -7.421875 C 2.453125 -7.023438 2.570312 -6.703125 2.8125 -6.453125 C 3.050781 -6.210938 3.472656 -6.019531 4.078125 -5.875 L 5.703125 -5.484375 C 6.554688 -5.285156 7.171875 -4.953125 7.546875 -4.484375 C 7.929688 -4.015625 8.125 -3.425781 8.125 -2.71875 C 8.125 -2.144531 7.988281 -1.640625 7.71875 -1.203125 C 7.445312 -0.765625 7.035156 -0.421875 6.484375 -0.171875 C 5.929688 0.0664062 5.257812 0.1875 4.46875 0.1875 Z M 4.46875 0.1875 "/></g></g></g></g></g></g></svg>