<svg xmlns="http://www.w3.org/2000/svg" xmlns:xlink="http://www.w3.org/1999/xlink" width="180" zoomAndPan="magnify" viewBox="0 0 135 30.000001" height="40" preserveAspectRatio="xMidYMid meet" version="1.0"><defs><g/><clipPath id="686ab0677c"><path d="M 2.175781 0 L 132.820312 0 L 132.820312 29 L 2.175781 29 Z M 2.175781 0 " clip-rule="nonzero"/></clipPath><clipPath id="f0372d3326"><path d="M 17 0.722656 L 18 0.722656 L 18 1 L 17 1 Z M 17 0.722656 " clip-rule="nonzero"/></clipPath><clipPath id="080e971c9d"><path d="M 23 5 L 24.398438 5 L 24.398438 6 L 23 6 Z M 23 5 " clip-rule="nonzero"/></clipPath><clipPath id="e0640b1408"><path d="M 0.175781 0.757812 L 24.3125 0.757812 L 24.3125 28.289062 L 0.175781 28.289062 Z M 0.175781 0.757812 " clip-rule="nonzero"/></clipPath><clipPath id="4680ff8a95"><rect x="0" width="131" y="0" height="29"/></clipPath></defs><g clip-path="url(#686ab0677c)"><g transform="matrix(1, 0, 0, 1, 2, 0.000000000000005773)"><g clip-path="url(#4680ff8a95)"><path fill="#007a3f" d="M 22.96875 6.078125 C 23.113281 6.199219 22.238281 5.46875 22.96875 6.078125 " fill-opacity="1" fill-rule="nonzero"/><path fill="#007a3f" d="M 11.757812 13.492188 C 11.894531 13.324219 11.621094 13.652344 11.757812 13.492188 " fill-opacity="1" fill-rule="nonzero"/><path fill="#007a3f" d="M 19.914062 17.523438 C 20.070312 17.433594 19.871094 17.542969 19.914062 17.523438 " fill-opacity="1" fill-rule="nonzero"/><path fill="#007a3f" d="M 17.730469 20.375 C 18 20.066406 17.984375 19.988281 17.730469 20.375 " fill-opacity="1" fill-rule="nonzero"/><path fill="#007a3f" d="M 5.132812 1.4375 C 5.222656 1.378906 4.222656 2.03125 5.132812 1.4375 " fill-opacity="1" fill-rule="nonzero"/><g clip-path="url(#f0372d3326)"><path fill="#007a3f" d="M 17.957031 0.792969 C 17.550781 1.011719 18.058594 0.738281 17.957031 0.792969 " fill-opacity="1" fill-rule="nonzero"/></g><g clip-path="url(#080e971c9d)"><path fill="#007a3f" d="M 24.171875 5.683594 C 23.71875 5.296875 24.289062 5.78125 24.171875 5.683594 " fill-opacity="1" fill-rule="nonzero"/></g><path fill="#007a3f" d="M 12.246094 5.214844 C 12.246094 5.214844 12.246094 5.21875 12.246094 5.21875 C 12.238281 5.140625 12.226562 5.027344 12.246094 5.214844 " fill-opacity="1" fill-rule="nonzero"/><g clip-path="url(#e0640b1408)"><path fill="#007a3f" d="M 22.445312 14.316406 C 22.453125 14.296875 22.457031 14.277344 22.464844 14.261719 C 22.460938 14.269531 22.460938 14.277344 22.457031 14.285156 C 22.453125 14.292969 22.449219 14.304688 22.445312 14.316406 Z M 16.515625 24.839844 C 16.226562 25.132812 15.921875 25.40625 15.613281 25.679688 C 15.519531 25.46875 15.433594 25.324219 15.421875 25.066406 C 15.421875 25.03125 15.40625 24.976562 15.382812 24.921875 C 15.515625 24.804688 15.65625 24.703125 15.785156 24.582031 C 16.144531 24.246094 16.5 23.894531 16.84375 23.535156 C 16.875 23.722656 16.929688 23.914062 16.9375 23.945312 C 16.96875 24.082031 17.007812 24.179688 17.042969 24.269531 C 16.867188 24.460938 16.699219 24.65625 16.515625 24.839844 Z M 13.398438 27.265625 C 13.402344 27.207031 13.414062 27.15625 13.40625 27.039062 C 13.40625 27.0625 13.410156 27.085938 13.40625 27.035156 C 13.398438 26.972656 13.402344 27 13.40625 27.03125 C 13.394531 26.894531 13.347656 26.765625 13.300781 26.675781 C 13.332031 26.652344 13.363281 26.628906 13.390625 26.605469 C 13.640625 26.402344 13.878906 26.1875 14.128906 25.984375 C 14.09375 26.015625 14.050781 26.050781 14.0625 26.109375 C 14.101562 26.300781 14.09375 26.515625 14.195312 26.691406 C 14.207031 26.710938 14.230469 26.726562 14.257812 26.742188 C 14.226562 26.761719 14.203125 26.789062 14.171875 26.808594 C 13.921875 26.976562 13.65625 27.117188 13.398438 27.265625 Z M 15.277344 25.636719 C 15.304688 25.703125 15.390625 25.765625 15.472656 25.808594 C 15.144531 26.089844 14.800781 26.347656 14.449219 26.597656 C 14.375 26.402344 14.335938 26.234375 14.296875 26.023438 C 14.277344 25.941406 14.222656 25.933594 14.167969 25.949219 C 14.511719 25.671875 14.847656 25.386719 15.179688 25.097656 C 15.183594 25.285156 15.203125 25.472656 15.277344 25.636719 Z M 12.40625 26.667969 C 12.460938 26.175781 12.394531 25.523438 12.40625 25.195312 C 12.414062 24.941406 12.40625 24.6875 12.414062 24.429688 C 12.679688 24.035156 12.972656 23.363281 13.035156 23.242188 C 14.132812 21.476562 15.578125 19.835938 16.929688 18.253906 C 15.671875 20.144531 14.3125 22.023438 13.203125 24.003906 C 13.097656 24.1875 12.507812 24.984375 12.8125 25.15625 C 13.097656 25.308594 13.640625 24.121094 13.773438 23.921875 C 14.453125 22.894531 15.21875 21.929688 15.984375 20.964844 C 15.316406 21.921875 14.660156 22.894531 14.023438 23.882812 C 13.78125 24.183594 12.835938 25.1875 12.910156 25.691406 C 12.800781 25.777344 12.699219 25.867188 12.589844 25.953125 C 12.246094 26.21875 12.761719 26.324219 13.042969 26.101562 C 14.46875 24.964844 15.71875 23.671875 16.984375 22.363281 C 17.582031 21.75 18.191406 21.152344 18.75 20.503906 C 18.183594 21.332031 17.542969 22.109375 16.867188 22.828125 C 16.097656 23.648438 15.265625 24.414062 14.402344 25.136719 C 13.984375 25.484375 13.566406 25.832031 13.125 26.144531 C 12.972656 26.253906 12.667969 26.515625 12.40625 26.667969 Z M 11.003906 26.144531 C 10.5625 25.832031 10.144531 25.484375 9.726562 25.136719 C 9.601562 25.03125 9.492188 24.910156 9.367188 24.800781 C 9.386719 24.707031 9.386719 24.636719 9.3125 24.6875 C 9.300781 24.695312 9.292969 24.714844 9.285156 24.722656 C 9.28125 24.71875 9.277344 24.714844 9.277344 24.714844 C 9.300781 24.695312 9.324219 24.679688 9.3125 24.6875 C 9.289062 24.703125 9.285156 24.707031 9.273438 24.714844 C 8.582031 24.109375 7.890625 23.5 7.261719 22.828125 C 5.832031 21.308594 4.542969 19.535156 3.8125 17.5625 C 3.5625 16.886719 3.371094 16.1875 3.203125 15.476562 C 4.890625 15.476562 6.578125 15.550781 8.269531 15.601562 C 9.113281 15.628906 9.957031 15.652344 10.804688 15.65625 C 10.957031 15.660156 11.328125 15.71875 11.539062 15.65625 C 11.734375 15.671875 11.933594 15.664062 12.101562 15.621094 C 12.074219 16.605469 12.039062 17.59375 12 18.582031 C 11.949219 19.925781 12.011719 21.273438 11.992188 22.621094 C 11.96875 23.980469 11.835938 25.339844 11.878906 26.699219 C 11.878906 26.703125 11.882812 26.726562 11.882812 26.734375 C 11.601562 26.632812 11.191406 26.277344 11.003906 26.144531 Z M 10.90625 27.714844 C 10.535156 27.542969 10.175781 27.335938 9.855469 27.09375 C 9.980469 26.796875 10.152344 26.519531 10.292969 26.226562 C 10.441406 26.351562 10.589844 26.484375 10.738281 26.605469 C 10.832031 26.679688 10.929688 26.753906 11.023438 26.828125 C 11.023438 26.832031 11.023438 26.828125 11.023438 26.828125 C 11.027344 26.832031 11.03125 26.832031 11.035156 26.835938 C 10.941406 27.117188 10.957031 27.421875 10.90625 27.714844 Z M 8.578125 25.953125 C 8.625 26.003906 8.679688 26.03125 8.742188 25.972656 C 8.882812 25.742188 9.03125 25.515625 9.175781 25.285156 C 9.476562 25.539062 9.773438 25.796875 10.078125 26.046875 C 9.964844 26.269531 9.851562 26.492188 9.742188 26.71875 C 9.710938 26.777344 9.703125 26.875 9.703125 26.96875 C 9.585938 26.875 9.46875 26.785156 9.367188 26.691406 C 9.105469 26.441406 8.839844 26.195312 8.578125 25.953125 Z M 7.640625 25.078125 C 7.769531 25.136719 7.992188 24.703125 8.125 24.363281 C 8.199219 24.4375 8.269531 24.511719 8.347656 24.582031 C 8.546875 24.769531 8.765625 24.933594 8.96875 25.109375 C 8.886719 25.253906 8.808594 25.402344 8.738281 25.519531 C 8.59375 25.632812 8.535156 25.769531 8.550781 25.925781 C 8.246094 25.644531 7.945312 25.359375 7.640625 25.078125 Z M 6.640625 24.070312 C 6.746094 23.902344 6.84375 23.644531 6.886719 23.574219 C 6.886719 23.566406 6.960938 23.398438 7.011719 23.238281 C 7.316406 23.566406 7.632812 23.882812 7.953125 24.195312 C 7.714844 24.4375 7.496094 24.847656 7.605469 25.042969 C 7.394531 24.847656 7.183594 24.65625 6.980469 24.460938 C 6.855469 24.339844 6.757812 24.199219 6.640625 24.070312 Z M 4.816406 21.945312 C 4.707031 21.828125 4.632812 21.683594 4.53125 21.558594 C 4.652344 21.429688 4.9375 21.117188 5.109375 20.890625 C 5.371094 21.269531 5.652344 21.640625 5.941406 22.003906 C 5.847656 22.160156 5.761719 22.320312 5.65625 22.472656 C 5.511719 22.679688 5.59375 23.082031 5.734375 22.824219 C 5.847656 22.621094 6 22.441406 6.128906 22.246094 C 6.371094 22.535156 6.621094 22.808594 6.875 23.085938 C 6.738281 23.253906 6.554688 23.582031 6.460938 23.863281 C 5.910156 23.226562 5.402344 22.550781 4.816406 21.945312 Z M 3.117188 19.132812 C 3.050781 18.964844 3 18.792969 2.9375 18.625 C 3.175781 18.492188 3.644531 18.003906 3.53125 17.890625 C 3.714844 18.371094 3.925781 18.839844 4.164062 19.304688 C 3.890625 19.457031 3.386719 19.792969 3.597656 19.9375 C 3.808594 20.082031 4.109375 19.769531 4.265625 19.511719 C 4.320312 19.609375 4.355469 19.710938 4.410156 19.804688 C 4.597656 20.128906 4.808594 20.433594 5.015625 20.742188 C 4.847656 20.867188 4.6875 21.058594 4.566406 21.167969 C 4.53125 21.199219 4.476562 21.3125 4.429688 21.421875 C 3.886719 20.726562 3.445312 19.945312 3.117188 19.132812 Z M 1.171875 12 C 1.402344 11.886719 1.65625 11.835938 1.890625 11.742188 C 1.90625 11.734375 1.957031 11.699219 2.011719 11.648438 C 2.105469 12.128906 2.199219 12.609375 2.292969 13.085938 C 2.125 13.179688 1.960938 13.277344 1.773438 13.34375 C 1.695312 13.371094 1.574219 13.484375 1.507812 13.578125 C 1.390625 13.050781 1.28125 12.523438 1.171875 12 Z M 3.527344 17.875 C 3.402344 17.804688 3.019531 18.125 2.851562 18.390625 C 2.300781 16.867188 1.882812 15.285156 1.53125 13.699219 C 1.546875 13.695312 1.546875 13.707031 1.570312 13.699219 C 1.832031 13.601562 2.113281 13.542969 2.355469 13.394531 C 2.371094 13.476562 2.386719 13.558594 2.402344 13.640625 C 2.480469 14.039062 2.5625 14.433594 2.648438 14.832031 C 2.308594 14.890625 1.832031 15.105469 1.992188 15.289062 C 2.066406 15.375 2.4375 15.210938 2.695312 15.050781 C 2.78125 15.4375 2.882812 15.816406 2.988281 16.195312 C 2.742188 16.296875 2.148438 16.710938 2.386719 16.871094 C 2.554688 16.984375 2.882812 16.546875 3.015625 16.308594 C 3.164062 16.839844 3.332031 17.363281 3.527344 17.875 Z M 1.820312 7 C 2.144531 7.109375 2.875 6.394531 3.054688 6.261719 C 2.914062 6.460938 2.359375 7.207031 2.785156 7.390625 C 2.71875 7.53125 2.707031 7.710938 2.875 7.796875 C 2.640625 8.082031 2.144531 8.65625 2.222656 9.0625 C 2.328125 9.613281 3.289062 8.863281 3.46875 8.710938 C 3.316406 8.929688 2.390625 10.167969 2.921875 10.328125 C 3.527344 10.511719 4.121094 9.679688 4.433594 9.285156 C 4.027344 9.828125 3.570312 10.414062 3.425781 11.089844 C 3.214844 12.097656 4.351562 11.15625 4.617188 10.898438 C 4.351562 11.234375 3.058594 12.617188 3.253906 13.058594 C 3.476562 13.554688 4.671875 12.097656 4.847656 11.898438 C 4.410156 12.554688 3.886719 13.25 3.644531 14.003906 C 3.304688 15.050781 4.328125 14.242188 4.609375 13.890625 C 4.242188 14.617188 4.703125 14.691406 5.179688 14.160156 C 5.460938 14.402344 6.183594 13.554688 6.363281 13.378906 C 6.246094 13.558594 5.535156 14.523438 5.9375 14.667969 C 6.34375 14.8125 7.21875 13.773438 7.457031 13.519531 C 7.257812 13.796875 7.089844 14.09375 6.964844 14.414062 C 6.933594 14.496094 6.804688 15.144531 7.160156 14.886719 C 7.9375 14.324219 8.566406 13.585938 9.1875 12.859375 C 8.992188 13.136719 7.757812 14.753906 8.148438 15.015625 C 8.625 15.332031 9.871094 13.414062 10.078125 13.121094 C 9.839844 13.5 9.53125 13.839844 9.390625 14.269531 C 9.136719 15.023438 9.746094 14.738281 10.101562 14.425781 C 9.820312 14.996094 9.96875 15.371094 10.550781 14.878906 C 10.496094 15.179688 10.753906 15.191406 10.925781 15.046875 C 10.902344 15.109375 10.910156 15.144531 10.902344 15.191406 C 9.414062 15.171875 7.925781 15.125 6.4375 15.082031 C 5.589844 15.058594 4.742188 15.039062 3.894531 15.03125 C 3.730469 15.027344 3.296875 14.953125 3.105469 15.050781 C 2.824219 13.757812 2.621094 12.4375 2.417969 11.148438 C 2.238281 10.019531 2.019531 8.902344 1.847656 7.773438 C 1.820312 7.597656 1.828125 7.296875 1.820312 7 Z M 2.890625 5.429688 C 3.550781 4.828125 4.222656 4.230469 4.890625 3.632812 C 4.921875 3.613281 4.929688 3.578125 4.945312 3.546875 C 5.890625 4.4375 7.125 4.808594 8.320312 5.226562 C 9.460938 5.628906 10.683594 6.125 11.917969 6.234375 C 11.84375 6.570312 11.96875 7.203125 11.972656 7.34375 C 11.976562 7.386719 11.976562 7.429688 11.980469 7.472656 C 11.976562 7.980469 11.960938 8.484375 11.972656 8.992188 C 11.992188 10 12.046875 11.007812 12.097656 12.015625 C 12.09375 12.535156 12.085938 13.050781 12.0625 13.566406 C 12.015625 13.441406 11.863281 13.363281 11.757812 13.492188 C 11.621094 13.652344 11.496094 13.820312 11.367188 13.988281 C 11.578125 13.648438 11.8125 13.324219 11.980469 13.050781 C 12.238281 12.640625 11.707031 12.75 11.527344 12.992188 C 11.242188 13.378906 10.996094 13.796875 10.6875 14.164062 C 10.953125 13.742188 11.269531 13.355469 11.550781 12.945312 C 11.722656 12.695312 11.878906 12.4375 12.007812 12.164062 C 12.070312 12.023438 11.910156 11.734375 11.738281 11.890625 C 11.019531 12.546875 10.621094 13.488281 9.863281 14.113281 C 10.164062 13.535156 10.59375 13.003906 10.941406 12.453125 C 11.09375 12.214844 11.832031 10.753906 11.003906 11.464844 C 10.09375 12.246094 9.640625 13.425781 8.75 14.230469 C 9.0625 13.683594 12.027344 10.085938 11.695312 9.746094 C 11.464844 9.511719 8.019531 13.597656 7.578125 14.011719 C 8.148438 13.0625 9.007812 12.257812 9.683594 11.375 C 10.027344 10.925781 10.367188 10.46875 10.710938 10.015625 C 10.820312 9.871094 11.058594 9.667969 10.910156 9.460938 C 10.824219 9.347656 10.722656 9.382812 10.636719 9.464844 C 10.636719 9.464844 10.636719 9.46875 10.632812 9.46875 C 9.195312 10.835938 8.078125 12.578125 6.542969 13.839844 C 7.167969 12.820312 8.023438 11.941406 8.8125 11.054688 C 9.269531 10.539062 9.75 10.050781 10.21875 9.550781 C 10.488281 9.269531 11.433594 8.507812 11.410156 8.097656 C 11.375 7.441406 10.4375 8.480469 10.3125 8.597656 C 9.800781 9.074219 9.304688 9.578125 8.820312 10.085938 C 7.929688 11.019531 7.121094 12.042969 6.199219 12.949219 C 6.953125 11.960938 7.761719 11.019531 8.601562 10.101562 C 9.144531 9.511719 9.695312 8.925781 10.246094 8.339844 C 10.386719 8.199219 10.789062 7.914062 10.777344 7.683594 C 10.765625 7.460938 10.5625 7.386719 10.40625 7.523438 C 10.40625 7.527344 10.40625 7.527344 10.40625 7.527344 C 9.550781 8.328125 8.753906 9.1875 7.992188 10.09375 C 7.574219 10.554688 7.167969 11.027344 6.761719 11.503906 C 7.523438 10.554688 8.304688 9.628906 9.113281 8.714844 C 9.359375 8.4375 10.339844 7.628906 10.308594 7.246094 C 10.25 6.597656 9.320312 7.714844 9.21875 7.820312 C 8.285156 8.796875 7.390625 9.820312 6.515625 10.851562 C 5.714844 11.796875 5.027344 12.90625 4.160156 13.78125 C 5.164062 11.519531 7.175781 9.453125 8.914062 7.734375 C 9.179688 7.476562 9.949219 6.878906 9.925781 6.472656 C 9.890625 5.820312 8.976562 6.789062 8.835938 6.914062 C 7.78125 7.863281 6.875 8.960938 5.914062 10.003906 C 6.609375 9.179688 7.273438 8.3125 8.007812 7.515625 C 8.328125 7.167969 8.6875 6.851562 8.972656 6.472656 C 9.511719 5.761719 8.839844 5.796875 8.378906 6.164062 C 6.707031 7.488281 5.625 9.496094 3.980469 10.839844 C 4.542969 9.773438 5.34375 8.746094 6.085938 7.800781 C 6.507812 7.265625 6.949219 6.746094 7.378906 6.21875 C 7.515625 6.054688 7.875 5.757812 7.859375 5.515625 C 7.851562 5.359375 7.683594 5.175781 7.523438 5.308594 C 6.621094 6.058594 5.792969 6.898438 5.039062 7.796875 C 4.507812 8.429688 4.078125 9.296875 3.367188 9.75 C 3.75 9.007812 4.320312 8.367188 4.820312 7.707031 C 5.082031 7.359375 5.351562 7.011719 5.628906 6.671875 C 5.820312 6.441406 6.578125 5.820312 6.554688 5.507812 C 6.496094 4.800781 4.902344 6.589844 4.722656 6.78125 C 4.15625 7.382812 3.640625 8.085938 2.929688 8.527344 C 3.535156 7.574219 4.460938 6.71875 5.195312 5.855469 C 5.355469 5.691406 5.820312 5.355469 5.800781 5.097656 C 5.789062 4.855469 5.5625 4.765625 5.398438 4.925781 C 5.386719 4.9375 5.375 4.949219 5.363281 4.960938 C 5.257812 5.066406 5.15625 5.175781 5.058594 5.285156 C 5.167969 5.128906 5.234375 4.769531 4.921875 4.785156 C 5.242188 4.3125 4.703125 4.277344 4.40625 4.476562 C 3.835938 4.855469 3.378906 5.386719 2.828125 5.796875 C 2.636719 5.941406 2.027344 6.242188 1.777344 6.546875 C 1.769531 6.5 1.75 6.476562 1.738281 6.441406 C 2.164062 6.175781 2.785156 5.527344 2.890625 5.429688 Z M 1.4375 4.804688 C 1.734375 4.558594 2.03125 4.308594 2.335938 4.070312 C 2.339844 4.070312 2.34375 4.066406 2.347656 4.0625 C 2.402344 4.226562 2.550781 4.421875 2.59375 4.507812 C 2.601562 4.523438 2.714844 4.679688 2.820312 4.804688 C 2.617188 4.957031 2.382812 5.132812 2.160156 5.316406 C 2.074219 5.191406 1.597656 4.753906 1.4375 4.804688 Z M 3.183594 3.347656 C 3.308594 3.589844 3.722656 3.960938 3.804688 3.917969 C 3.628906 4.105469 3.457031 4.300781 3.261719 4.464844 C 3.191406 4.523438 3.082031 4.609375 2.960938 4.699219 C 2.871094 4.484375 2.667969 4.082031 2.511719 3.921875 C 2.738281 3.738281 2.960938 3.542969 3.183594 3.347656 Z M 3.839844 3.878906 C 3.832031 3.851562 3.828125 3.832031 3.839844 3.878906 C 3.839844 3.882812 3.839844 3.882812 3.839844 3.882812 C 3.804688 3.785156 3.539062 3.390625 3.34375 3.210938 C 3.671875 2.917969 4.023438 2.652344 4.363281 2.371094 C 4.351562 2.625 4.402344 3.039062 4.515625 3.269531 C 4.511719 3.269531 4.511719 3.269531 4.515625 3.269531 C 4.519531 3.28125 4.523438 3.300781 4.53125 3.3125 C 4.28125 3.476562 4.046875 3.660156 3.839844 3.878906 Z M 5.125 1.792969 C 5.046875 2.195312 5.105469 2.824219 5.179688 3.148438 C 5.070312 3.097656 4.972656 3.144531 4.917969 3.242188 C 4.871094 3.183594 4.8125 3.15625 4.738281 3.175781 C 4.738281 3.171875 4.738281 3.167969 4.738281 3.160156 C 4.75 3.15625 4.75 3.15625 4.738281 3.160156 C 4.714844 3.023438 4.667969 2.882812 4.664062 2.851562 C 4.636719 2.746094 4.648438 2.796875 4.660156 2.847656 C 4.589844 2.527344 4.535156 2.367188 4.488281 2.273438 C 4.695312 2.105469 4.890625 1.921875 5.113281 1.773438 C 5.113281 1.78125 5.125 1.785156 5.125 1.792969 Z M 5.875 2.347656 C 5.824219 2.582031 5.699219 3.15625 5.730469 3.53125 C 5.589844 3.4375 5.453125 3.339844 5.324219 3.230469 C 5.390625 2.960938 5.410156 2.308594 5.433594 1.898438 C 5.582031 2.066406 5.738281 2.226562 5.875 2.347656 Z M 6.832031 3.015625 C 6.789062 3.238281 6.710938 3.726562 6.699219 4.070312 C 6.441406 3.960938 6.1875 3.839844 5.945312 3.691406 C 5.941406 3.691406 5.941406 3.6875 5.9375 3.6875 C 5.980469 3.433594 6 2.949219 6.003906 2.886719 C 6.019531 2.761719 6.042969 2.640625 6.0625 2.519531 C 6.296875 2.746094 6.554688 2.898438 6.832031 3.015625 Z M 7.785156 3.335938 C 7.773438 3.34375 7.761719 3.339844 7.753906 3.390625 C 7.761719 3.363281 7.761719 3.34375 7.753906 3.394531 C 7.71875 3.640625 7.578125 4.097656 7.632812 4.421875 C 7.59375 4.410156 7.558594 4.394531 7.523438 4.382812 C 7.316406 4.3125 7.117188 4.234375 6.914062 4.15625 C 6.949219 3.90625 6.945312 3.578125 6.957031 3.503906 C 6.972656 3.363281 7.003906 3.222656 7.03125 3.085938 C 7.191406 3.144531 7.347656 3.210938 7.519531 3.257812 C 7.609375 3.28125 7.695312 3.308594 7.785156 3.335938 Z M 8.730469 3.609375 C 8.636719 3.871094 8.464844 4.363281 8.480469 4.726562 C 8.25 4.640625 8.023438 4.5625 7.792969 4.480469 C 7.847656 4.230469 7.894531 3.804688 7.902344 3.78125 C 7.910156 3.726562 7.863281 3.4375 7.816406 3.34375 C 8.121094 3.429688 8.425781 3.515625 8.730469 3.609375 Z M 10.015625 4.46875 C 10.03125 4.304688 10.046875 4.140625 10.066406 3.976562 C 10.363281 4.050781 10.664062 4.105469 10.96875 4.152344 C 10.910156 4.257812 10.835938 4.496094 10.835938 4.539062 C 10.835938 4.625 10.835938 5.101562 10.867188 5.480469 C 10.566406 5.410156 10.269531 5.308594 9.972656 5.21875 C 10.023438 4.972656 10.007812 4.554688 10.015625 4.46875 Z M 8.933594 3.667969 C 9.242188 3.765625 9.554688 3.847656 9.871094 3.929688 C 9.839844 4.199219 9.765625 4.820312 9.789062 5.160156 C 9.421875 5.042969 9.054688 4.933594 8.695312 4.800781 C 8.738281 4.539062 8.785156 4.183594 8.800781 4.117188 C 8.835938 3.964844 8.882812 3.816406 8.933594 3.667969 Z M 12.058594 4.242188 C 12.019531 4.464844 12.027344 5.199219 12.089844 5.664062 C 11.765625 5.65625 11.4375 5.617188 11.105469 5.542969 C 11.125 5.066406 11.042969 4.320312 11.042969 4.191406 C 11.042969 4.164062 11.035156 4.175781 11.03125 4.160156 C 11.226562 4.1875 11.417969 4.222656 11.617188 4.234375 C 11.761719 4.242188 11.910156 4.238281 12.058594 4.242188 Z M 13.101562 4.203125 C 13.0625 4.367188 13.078125 4.640625 13.074219 4.710938 C 13.074219 4.796875 13.070312 5.28125 13.136719 5.582031 C 12.863281 5.628906 12.582031 5.652344 12.296875 5.652344 C 12.285156 5.46875 12.25 5.28125 12.246094 5.21875 C 12.25 5.277344 12.253906 5.324219 12.246094 5.214844 C 12.195312 4.65625 12.152344 4.363281 12.117188 4.242188 C 12.445312 4.246094 12.773438 4.234375 13.101562 4.203125 Z M 15.910156 3.167969 C 15.914062 3.414062 15.992188 3.957031 16.089844 4.246094 C 15.832031 4.425781 15.5625 4.589844 15.285156 4.742188 C 15.328125 4.621094 15.207031 4.1875 15.207031 4.175781 C 15.191406 4.066406 15.199219 4.121094 15.207031 4.171875 C 15.167969 3.921875 15.128906 3.777344 15.089844 3.683594 C 15.132812 3.660156 15.179688 3.648438 15.222656 3.625 C 15.464844 3.496094 15.691406 3.335938 15.910156 3.167969 Z M 16.679688 2.507812 C 16.710938 2.734375 16.808594 3.527344 16.953125 3.496094 C 17.125 3.460938 16.914062 2.515625 16.898438 2.390625 C 16.890625 2.324219 16.894531 2.347656 16.898438 2.390625 C 16.890625 2.34375 16.859375 2.351562 16.835938 2.335938 C 17.203125 1.9375 17.511719 1.46875 17.945312 1.15625 C 17.988281 1.253906 18.042969 1.207031 18.089844 1.128906 C 18.117188 1.335938 18.601562 1.730469 18.988281 2.023438 C 18.882812 2.222656 18.605469 2.589844 18.523438 2.894531 C 18.457031 2.847656 18.394531 2.800781 18.328125 2.75 C 18.269531 2.710938 18.183594 2.632812 18.09375 2.578125 C 18.015625 2.179688 18.0625 1.773438 18.070312 1.367188 C 18.082031 0.992188 17.816406 1.578125 17.804688 1.691406 C 17.777344 1.945312 17.746094 2.210938 17.792969 2.464844 C 17.796875 2.492188 17.820312 2.53125 17.847656 2.566406 C 17.828125 2.578125 17.808594 2.578125 17.789062 2.601562 C 17.742188 2.660156 17.726562 2.742188 17.726562 2.816406 C 17.632812 2.882812 17.453125 3.015625 17.714844 2.828125 C 17.726562 2.816406 17.714844 2.824219 17.726562 2.816406 C 17.726562 2.820312 17.722656 2.820312 17.722656 2.824219 C 17.71875 2.824219 17.71875 2.824219 17.714844 2.828125 C 17.226562 3.175781 16.878906 3.671875 16.417969 4.042969 C 16.363281 4.089844 16.292969 4.113281 16.234375 4.15625 C 16.203125 4.023438 16.15625 3.882812 16.144531 3.832031 C 16.125 3.742188 16.128906 3.765625 16.136719 3.800781 C 16.054688 3.40625 16 3.21875 15.964844 3.132812 C 16.203125 2.945312 16.433594 2.742188 16.65625 2.535156 C 16.664062 2.527344 16.671875 2.515625 16.679688 2.507812 Z M 20.90625 3.523438 C 20.75 3.734375 20.585938 3.941406 20.46875 4.171875 C 20.472656 4.167969 20.460938 4.214844 20.445312 4.277344 C 20.257812 4.148438 20.0625 4.027344 19.882812 3.890625 C 19.796875 3.828125 19.710938 3.765625 19.625 3.703125 C 19.753906 3.519531 19.878906 3.265625 19.898438 3.226562 C 19.945312 3.125 19.976562 2.585938 19.820312 2.878906 C 19.832031 2.851562 19.839844 2.835938 19.816406 2.878906 C 19.769531 2.972656 19.550781 3.304688 19.445312 3.570312 C 19.207031 3.394531 18.96875 3.21875 18.730469 3.046875 C 18.808594 2.898438 18.875 2.714844 18.890625 2.691406 C 18.988281 2.519531 19.085938 2.347656 19.179688 2.171875 C 19.257812 2.230469 19.347656 2.296875 19.382812 2.324219 C 19.878906 2.742188 20.390625 3.132812 20.90625 3.523438 Z M 21.246094 3.789062 C 21.339844 3.863281 21.429688 3.945312 21.523438 4.023438 C 21.507812 4.023438 21.492188 4.023438 21.464844 4.082031 C 21.433594 4.160156 21.328125 4.535156 21.246094 4.832031 C 21.035156 4.691406 20.832031 4.542969 20.621094 4.398438 C 20.734375 4.21875 20.828125 4.003906 20.9375 3.859375 C 20.960938 3.824219 20.996094 3.714844 21.015625 3.613281 C 21.09375 3.671875 21.167969 3.730469 21.246094 3.789062 Z M 23.773438 5.761719 C 23.789062 5.769531 23.855469 5.789062 23.933594 5.808594 C 23.714844 5.84375 23.492188 5.878906 23.273438 5.925781 C 23.175781 5.945312 23.0625 6.03125 22.992188 6.105469 C 22.980469 6.097656 22.980469 6.089844 22.96875 6.078125 C 22.828125 5.960938 22.671875 5.867188 22.527344 5.757812 C 22.632812 5.601562 22.726562 5.4375 22.753906 5.402344 C 22.785156 5.359375 22.824219 5.226562 22.839844 5.117188 C 22.90625 5.167969 22.96875 5.226562 23.035156 5.273438 C 23.269531 5.453125 23.523438 5.609375 23.773438 5.761719 Z M 22.972656 11.703125 C 22.941406 11.652344 22.910156 11.609375 22.898438 11.601562 C 22.703125 11.46875 22.457031 11.441406 22.226562 11.390625 C 22.164062 11.375 22.191406 11.382812 22.226562 11.390625 C 22.191406 11.382812 22.183594 11.421875 22.160156 11.441406 C 22.257812 10.960938 22.339844 10.484375 22.425781 10 C 22.609375 10.089844 22.972656 10.132812 23.234375 10.140625 C 23.175781 10.570312 23.117188 10.996094 23.058594 11.425781 C 23.03125 11.519531 23 11.609375 22.972656 11.703125 Z M 21.699219 14.488281 C 21.742188 14.53125 21.796875 14.597656 21.699219 14.488281 C 21.644531 14.425781 21.589844 14.445312 21.550781 14.488281 C 21.609375 14.207031 21.671875 13.921875 21.726562 13.640625 C 21.761719 13.460938 21.796875 13.28125 21.835938 13.101562 C 21.851562 13.179688 21.902344 13.269531 22.039062 13.335938 C 22.183594 13.40625 22.292969 13.496094 22.410156 13.582031 C 22.289062 13.984375 22.171875 14.382812 22.050781 14.789062 C 21.9375 14.679688 21.792969 14.589844 21.699219 14.488281 Z M 19.71875 19.804688 C 19.917969 19.460938 20.074219 19.105469 20.238281 18.75 C 20.273438 18.867188 20.339844 18.988281 20.371094 19.039062 C 20.402344 19.085938 20.453125 19.121094 20.507812 19.140625 C 20.460938 19.246094 20.417969 19.351562 20.371094 19.453125 C 20.214844 19.742188 20.074219 20.035156 19.902344 20.316406 C 19.824219 20.257812 19.734375 20.214844 19.683594 20.128906 C 19.554688 19.984375 19.417969 20.234375 19.511719 20.347656 C 19.585938 20.429688 19.664062 20.515625 19.753906 20.585938 C 19.738281 20.609375 19.726562 20.640625 19.710938 20.664062 C 19.515625 20.96875 19.324219 21.28125 19.136719 21.59375 C 19.035156 21.414062 18.898438 21.238281 18.789062 21.226562 C 19.121094 20.765625 19.4375 20.296875 19.71875 19.804688 Z M 11.984375 14.820312 C 11.980469 14.894531 11.976562 14.964844 11.972656 15.035156 C 11.933594 15.035156 11.898438 15.039062 11.859375 15.039062 C 11.914062 14.96875 11.957031 14.894531 11.984375 14.820312 Z M 12 14.597656 C 11.988281 14.570312 11.984375 14.542969 11.960938 14.523438 C 12.011719 14.398438 12.035156 14.113281 11.808594 14.15625 C 11.894531 14.015625 11.972656 13.875 12.050781 13.734375 C 12.039062 14.023438 12.019531 14.3125 12 14.597656 Z M 15.070312 15.710938 C 15.183594 15.710938 15.292969 15.722656 15.402344 15.71875 C 15.238281 15.78125 15.03125 16.054688 14.972656 16.121094 C 15.0625 15.925781 15.082031 15.800781 15.070312 15.710938 Z M 14.558594 15.816406 C 14.582031 15.765625 14.582031 15.742188 14.597656 15.703125 C 14.636719 15.707031 14.675781 15.707031 14.71875 15.707031 C 14.664062 15.742188 14.621094 15.761719 14.558594 15.816406 Z M 13.382812 16.210938 C 13.148438 16.695312 12.730469 17.148438 12.441406 17.578125 C 12.441406 17.472656 12.441406 17.367188 12.441406 17.261719 C 12.78125 16.9375 13.054688 16.546875 13.382812 16.210938 Z M 12.589844 15.75 C 12.589844 15.75 12.5625 15.558594 12.46875 15.558594 C 12.464844 15.558594 12.460938 15.570312 12.457031 15.570312 C 12.457031 15.554688 12.457031 15.535156 12.457031 15.519531 C 12.539062 15.523438 12.617188 15.523438 12.667969 15.53125 C 12.722656 15.535156 12.773438 15.542969 12.824219 15.546875 C 12.722656 15.628906 12.621094 15.730469 12.589844 15.75 Z M 12.445312 16.035156 C 12.488281 16.035156 12.527344 16.042969 12.605469 15.988281 C 12.597656 15.996094 12.515625 16.132812 12.441406 16.273438 C 12.441406 16.195312 12.445312 16.113281 12.445312 16.035156 Z M 14.21875 15.96875 C 14.039062 16.261719 13.828125 16.527344 13.625 16.804688 C 13.199219 17.339844 12.820312 17.910156 12.445312 18.476562 C 12.445312 18.304688 12.445312 18.132812 12.441406 17.960938 C 12.613281 17.9375 12.8125 17.617188 12.898438 17.519531 C 13.332031 16.996094 13.71875 16.429688 14.21875 15.96875 Z M 13.65625 16.214844 C 14.050781 15.238281 13.199219 15.992188 12.90625 16.347656 C 12.945312 16.292969 13.199219 15.832031 13.261719 15.597656 C 13.546875 15.632812 13.828125 15.675781 14.113281 15.695312 C 14.152344 15.699219 14.191406 15.695312 14.230469 15.699219 C 13.992188 15.882812 13.726562 16.136719 13.65625 16.214844 Z M 13.074219 19.117188 C 12.847656 19.476562 12.640625 19.855469 12.453125 20.242188 C 12.449219 19.742188 12.449219 19.242188 12.445312 18.742188 C 12.554688 18.707031 12.703125 18.613281 12.757812 18.53125 C 12.996094 18.203125 13.222656 17.863281 13.449219 17.523438 C 13.808594 17.023438 14.191406 16.550781 14.636719 16.152344 C 14.285156 16.785156 13.800781 17.382812 13.386719 17.980469 C 13.148438 18.316406 12.914062 18.660156 12.714844 19.019531 C 12.539062 19.332031 12.972656 19.214844 13.074219 19.117188 Z M 15.78125 16.710938 C 16.332031 15.609375 15.554688 16.195312 15.097656 16.714844 C 15.207031 16.546875 15.679688 16.003906 15.585938 15.789062 C 15.558594 15.730469 15.515625 15.722656 15.476562 15.71875 C 15.90625 15.703125 16.332031 15.683594 16.757812 15.667969 C 16.957031 15.660156 17.15625 15.640625 17.355469 15.625 C 16.933594 16.089844 16.523438 16.566406 16.140625 17.066406 C 16.25 16.703125 16.15625 16.359375 15.78125 16.710938 Z M 20.78125 17.367188 C 20.835938 17.515625 20.960938 17.644531 21.089844 17.722656 C 20.945312 18.117188 20.78125 18.503906 20.617188 18.886719 C 20.539062 18.726562 20.453125 18.550781 20.371094 18.480469 C 20.523438 18.113281 20.65625 17.742188 20.78125 17.367188 Z M 21.535156 14.695312 C 21.664062 14.835938 21.824219 14.941406 21.960938 15.074219 C 21.90625 15.253906 21.851562 15.433594 21.796875 15.613281 C 21.3125 14.816406 21.339844 15.554688 21.675781 15.996094 C 21.519531 16.5 21.347656 16.992188 21.171875 17.488281 C 21.089844 17.3125 20.972656 17.136719 20.867188 17.132812 C 21.070312 16.496094 21.253906 15.855469 21.402344 15.203125 C 21.566406 15.105469 21.652344 15.007812 21.449219 14.972656 C 21.472656 14.863281 21.496094 14.753906 21.519531 14.644531 C 21.523438 14.660156 21.523438 14.679688 21.535156 14.695312 Z M 22.578125 13.011719 C 22.554688 13.097656 22.527344 13.1875 22.5 13.269531 C 22.5 13.269531 22.496094 13.269531 22.5 13.269531 C 22.5 13.273438 22.5 13.277344 22.5 13.277344 C 22.324219 13.175781 22.125 13.113281 21.960938 12.988281 C 21.921875 12.957031 21.886719 12.953125 21.859375 12.964844 C 21.953125 12.507812 22.039062 12.046875 22.132812 11.585938 C 22.148438 11.613281 22.140625 11.65625 22.175781 11.664062 C 22.425781 11.71875 22.664062 11.867188 22.90625 11.925781 C 22.796875 12.292969 22.6875 12.660156 22.578125 13.011719 Z M 23.5625 8.53125 C 23.472656 8.480469 23.386719 8.441406 23.359375 8.4375 C 23.125 8.410156 22.894531 8.453125 22.660156 8.460938 C 22.699219 8.460938 22.707031 8.460938 22.652344 8.460938 C 22.65625 8.460938 22.65625 8.460938 22.660156 8.460938 C 22.65625 8.460938 22.65625 8.460938 22.652344 8.460938 C 22.699219 8.113281 22.765625 7.765625 22.804688 7.421875 C 22.792969 7.445312 22.785156 7.46875 22.800781 7.5 C 22.910156 7.730469 23.445312 7.601562 23.773438 7.492188 C 23.765625 7.550781 23.753906 7.605469 23.746094 7.660156 C 23.707031 7.953125 23.632812 8.242188 23.5625 8.53125 Z M 22.457031 9.777344 C 22.527344 9.386719 22.570312 9 22.628906 8.613281 C 22.699219 8.65625 22.792969 8.695312 22.886719 8.6875 C 22.984375 8.679688 23.292969 8.753906 23.507812 8.796875 C 23.417969 9.164062 23.332031 9.53125 23.277344 9.90625 C 23.011719 9.773438 22.65625 9.710938 22.457031 9.777344 Z M 21.546875 4.042969 C 21.945312 4.371094 22.339844 4.710938 22.746094 5.039062 C 22.691406 5.113281 22.484375 5.371094 22.335938 5.617188 C 22.007812 5.378906 21.6875 5.128906 21.34375 4.898438 C 21.414062 4.757812 21.472656 4.609375 21.523438 4.496094 C 21.554688 4.425781 21.574219 4.136719 21.546875 4.042969 Z M 16.183594 4.863281 C 16.65625 4.511719 17.097656 4.113281 17.527344 3.710938 C 17.667969 3.578125 17.917969 3.398438 18.015625 3.203125 C 18.960938 3.898438 19.878906 4.632812 20.828125 5.320312 C 21.28125 5.648438 21.765625 5.921875 22.21875 6.25 C 22.265625 6.28125 22.34375 6.308594 22.433594 6.328125 C 22.265625 6.664062 22.335938 7.4375 22.28125 7.773438 C 22.113281 8.902344 21.890625 10.019531 21.710938 11.148438 C 21.515625 12.390625 21.320312 13.664062 21.054688 14.917969 C 20.625 14.859375 20.808594 14.882812 21.054688 14.917969 C 21.050781 14.925781 21.046875 14.9375 21.046875 14.949219 C 20.132812 14.871094 19.199219 14.933594 18.265625 15.027344 C 18.246094 14.96875 18.164062 14.976562 18.027344 15.054688 C 17.351562 15.125 16.675781 15.199219 16.019531 15.226562 C 15.074219 15.265625 14.148438 15.265625 13.207031 15.152344 C 13.144531 15.144531 12.824219 15.097656 12.46875 15.0625 C 12.472656 14.863281 12.480469 14.664062 12.484375 14.464844 C 12.636719 14.277344 12.5625 13.773438 12.5625 13.625 C 12.5625 13.242188 12.542969 12.855469 12.53125 12.472656 C 12.539062 12.335938 12.535156 12.195312 12.542969 12.058594 C 12.542969 12.042969 12.523438 12.050781 12.519531 12.035156 C 12.511719 11.730469 12.511719 11.425781 12.496094 11.121094 C 12.433594 9.503906 12.351562 7.886719 12.421875 6.269531 C 12.453125 6.269531 12.480469 6.277344 12.507812 6.277344 C 13.835938 6.238281 15.128906 5.644531 16.183594 4.863281 Z M 14.980469 4.148438 C 15.007812 4.320312 15.027344 4.574219 15.15625 4.710938 C 15.21875 4.777344 15.25 4.773438 15.269531 4.75 C 15.121094 4.832031 14.984375 4.941406 14.835938 5.015625 C 14.660156 5.105469 14.484375 5.167969 14.304688 5.238281 C 14.289062 5.03125 14.238281 4.75 14.234375 4.71875 C 14.238281 4.769531 14.242188 4.808594 14.234375 4.710938 C 14.222656 4.566406 14.226562 4.636719 14.234375 4.703125 C 14.214844 4.472656 14.226562 4.242188 14.230469 4.007812 C 14.480469 3.9375 14.722656 3.84375 14.957031 3.734375 C 14.953125 3.835938 14.957031 3.972656 14.980469 4.148438 Z M 13.328125 4.222656 C 13.34375 4.066406 13.28125 4.742188 13.328125 4.222656 C 13.328125 4.199219 13.296875 4.207031 13.289062 4.1875 C 13.535156 4.160156 13.773438 4.109375 14.011719 4.054688 C 13.992188 4.417969 13.953125 5 14.15625 5.300781 C 13.886719 5.402344 13.613281 5.476562 13.335938 5.535156 C 13.351562 5.105469 13.316406 4.34375 13.328125 4.222656 Z M 13.605469 21.324219 C 13.292969 21.910156 12.996094 22.503906 12.703125 23.097656 C 12.652344 23.179688 12.542969 23.351562 12.425781 23.539062 C 12.4375 22.632812 12.460938 21.722656 12.457031 20.816406 C 12.457031 20.730469 12.453125 20.640625 12.453125 20.554688 C 12.507812 20.59375 12.582031 20.601562 12.644531 20.53125 C 12.84375 20.304688 13.035156 20.070312 13.214844 19.828125 C 13.941406 18.855469 14.542969 17.785156 15.359375 16.878906 C 15.179688 17.210938 14.984375 17.535156 14.777344 17.851562 C 14.492188 18.238281 14.21875 18.644531 13.957031 19.054688 C 13.632812 19.523438 13.304688 19.992188 13.003906 20.476562 C 12.882812 20.667969 12.769531 20.863281 12.660156 21.0625 C 12.582031 21.210938 12.796875 21.417969 12.910156 21.253906 C 13.589844 20.292969 14.1875 19.273438 14.84375 18.292969 C 15.136719 17.878906 15.453125 17.488281 15.792969 17.144531 C 15.574219 17.648438 15.128906 18 14.871094 18.476562 C 14.492188 19.179688 14.066406 19.855469 13.636719 20.53125 C 13.429688 20.859375 12.640625 21.734375 12.695312 22.121094 C 12.777344 22.679688 13.527344 21.441406 13.605469 21.324219 Z M 17.730469 20.375 C 18.164062 19.710938 18.613281 19.0625 19.070312 18.414062 C 19.15625 18.324219 19.242188 18.230469 19.324219 18.140625 C 19.054688 18.570312 18.789062 19.007812 18.535156 19.449219 C 18.269531 19.761719 18 20.066406 17.730469 20.375 Z M 17.890625 20.835938 C 17.898438 20.84375 17.90625 20.839844 17.910156 20.84375 C 17.78125 20.988281 17.644531 21.128906 17.511719 21.273438 C 17.640625 21.128906 17.765625 20.984375 17.890625 20.835938 Z M 14.871094 23.675781 C 14.734375 23.835938 14.160156 24.34375 14.082031 24.683594 C 13.957031 24.792969 13.84375 24.914062 13.71875 25.023438 C 13.988281 24.617188 14.242188 24.195312 14.308594 24.089844 C 15.1875 23.011719 16.027344 21.90625 16.929688 20.847656 C 16.28125 21.820312 15.605469 22.78125 14.871094 23.675781 Z M 19.726562 18.769531 C 19.398438 19.152344 19.0625 19.527344 18.730469 19.910156 C 18.761719 19.851562 18.785156 19.804688 18.800781 19.78125 C 19.125 19.398438 19.441406 19.007812 19.722656 18.597656 C 19.78125 18.511719 20.554688 17.171875 19.914062 17.523438 C 19.871094 17.542969 19.832031 17.570312 19.792969 17.601562 C 19.917969 17.445312 20.183594 16.589844 19.78125 16.976562 C 19.488281 17.253906 19.253906 17.574219 19.019531 17.898438 C 18.304688 18.660156 17.621094 19.441406 16.941406 20.238281 C 17.554688 19.386719 18.175781 18.542969 18.8125 17.714844 C 19.097656 17.34375 19.382812 16.980469 19.667969 16.613281 C 19.972656 16.230469 19.9375 15.804688 19.441406 16.238281 C 18.113281 17.398438 17.125 18.894531 16.046875 20.273438 C 16.699219 19.261719 17.316406 18.207031 18.0625 17.265625 C 18.410156 16.832031 18.785156 16.417969 19.140625 15.996094 C 19.675781 15.363281 19.113281 15.40625 18.683594 15.761719 C 17.839844 16.457031 17.175781 17.433594 16.46875 18.265625 C 15.675781 19.195312 14.914062 20.15625 14.144531 21.109375 C 15.238281 19.125 16.78125 17.480469 17.976562 15.582031 C 18.515625 15.53125 19.054688 15.484375 19.597656 15.472656 C 20.015625 15.46875 20.4375 15.5 20.851562 15.449219 C 20.863281 15.445312 20.898438 15.433594 20.9375 15.421875 C 20.769531 16.148438 20.574219 16.867188 20.316406 17.5625 C 20.164062 17.972656 19.976562 18.371094 19.777344 18.765625 C 19.757812 18.769531 19.742188 18.75 19.726562 18.769531 Z M 18.3125 22.785156 C 18.234375 22.566406 18.128906 22.371094 18.097656 22.117188 C 18.304688 21.863281 18.503906 21.605469 18.699219 21.34375 C 18.6875 21.515625 18.839844 21.695312 19.007812 21.800781 C 18.863281 22.035156 18.703125 22.257812 18.554688 22.484375 C 18.476562 22.589844 18.390625 22.683594 18.3125 22.785156 Z M 17.421875 23.859375 C 17.355469 23.9375 17.285156 24.011719 17.214844 24.085938 C 17.203125 24.03125 17.207031 24.011719 17.191406 23.945312 C 17.164062 23.832031 17.179688 23.886719 17.191406 23.9375 C 17.164062 23.820312 17.148438 23.476562 17.070312 23.292969 C 17.339844 23.003906 17.609375 22.710938 17.867188 22.40625 C 17.894531 22.582031 17.933594 22.757812 18.03125 22.898438 C 18.050781 22.925781 18.097656 22.957031 18.148438 22.988281 C 18.066406 23.089844 17.984375 23.195312 17.898438 23.296875 C 17.730469 23.441406 17.558594 23.582031 17.421875 23.761719 C 17.378906 23.816406 17.390625 23.847656 17.421875 23.859375 Z M 24.035156 6.273438 C 24.015625 6.292969 23.980469 6.296875 23.980469 6.335938 C 23.980469 6.386719 23.96875 6.4375 23.96875 6.488281 C 23.894531 6.773438 23.835938 7.054688 23.796875 7.34375 C 23.464844 7.289062 22.910156 7.253906 22.808594 7.394531 C 22.816406 7.289062 22.84375 7.183594 22.851562 7.078125 C 22.859375 7.03125 22.867188 6.632812 22.808594 6.359375 C 22.953125 6.351562 23.058594 6.308594 23.0625 6.234375 C 23.355469 6.160156 23.660156 6.140625 23.953125 6.078125 C 23.984375 6.070312 24.046875 6.035156 24.109375 5.988281 C 24.0625 6.089844 24.023438 6.171875 24.109375 5.988281 C 24.117188 5.984375 24.121094 5.980469 24.128906 5.972656 C 24.085938 6.070312 24.066406 6.175781 24.035156 6.273438 Z M 24.21875 5.757812 C 24.207031 5.734375 24.21875 5.722656 24.171875 5.683594 C 23.195312 4.851562 22.105469 4.0625 21.070312 3.292969 C 20.542969 2.902344 20.027344 2.496094 19.523438 2.074219 C 19.375 1.953125 18.425781 1.042969 18.140625 1.027344 C 18.1875 0.863281 18.171875 0.679688 17.957031 0.792969 C 17.441406 1.070312 17.15625 1.613281 16.777344 2.027344 C 16.386719 2.457031 15.925781 2.808594 15.453125 3.140625 C 14.414062 3.875 13.117188 3.871094 11.902344 3.9375 C 10.648438 4 9.4375 3.53125 8.265625 3.167969 C 7.671875 2.984375 7.03125 2.902344 6.5 2.554688 C 6.324219 2.4375 5.695312 1.667969 5.382812 1.5 C 5.359375 1.484375 5.367188 1.441406 5.328125 1.445312 C 5.316406 1.449219 5.3125 1.460938 5.304688 1.464844 C 5.285156 1.464844 5.25 1.429688 5.234375 1.4375 C 5.230469 1.4375 5.238281 1.445312 5.234375 1.449219 C 5.207031 1.429688 5.175781 1.414062 5.132812 1.4375 C 4.210938 2.039062 3.441406 2.839844 2.597656 3.542969 C 2.261719 3.824219 0.0625 5.273438 0.230469 5.738281 C 0.332031 6.019531 0.992188 5.179688 1.097656 5.082031 C 1.1875 5 1.289062 4.929688 1.382812 4.851562 C 1.339844 5.144531 1.824219 5.375 2.0625 5.402344 C 1.726562 5.6875 1.445312 5.980469 1.363281 6.222656 C 1.355469 6.246094 1.34375 6.269531 1.335938 6.300781 C 1.335938 6.308594 1.328125 6.320312 1.324219 6.332031 C 1.324219 6.335938 1.328125 6.335938 1.328125 6.339844 C 1.261719 6.609375 1.273438 7.03125 1.277344 7.078125 C 1.40625 8.519531 1.679688 9.972656 1.964844 11.417969 C 1.757812 11.476562 1.539062 11.585938 1.355469 11.648438 C 1.25 11.683594 1.183594 11.746094 1.136719 11.8125 C 0.898438 10.640625 0.816406 9.441406 0.605469 8.261719 C 0.507812 7.726562 0.421875 7.191406 0.414062 6.644531 C 0.414062 6.492188 0.542969 5.984375 0.410156 5.867188 C 0.167969 5.660156 0.183594 6.324219 0.1875 6.289062 C 0.117188 7.546875 0.492188 8.8125 0.644531 10.050781 C 0.789062 11.214844 1.03125 12.339844 1.269531 13.488281 C 1.753906 15.835938 2.320312 18.28125 3.457031 20.414062 C 3.972656 21.386719 4.714844 22.09375 5.425781 22.90625 C 5.785156 23.320312 6.105469 23.734375 6.4375 24.132812 C 6.453125 24.164062 6.441406 24.21875 6.476562 24.21875 C 6.484375 24.21875 6.492188 24.207031 6.5 24.203125 C 6.847656 24.613281 7.207031 25.003906 7.652344 25.363281 C 8.496094 26.050781 9.144531 26.96875 10.082031 27.53125 C 10.355469 27.695312 10.609375 27.832031 10.886719 27.953125 C 10.890625 28.046875 10.960938 28.0625 11.035156 28.019531 C 11.082031 28.039062 11.121094 28.0625 11.171875 28.082031 C 11.253906 28.109375 12.636719 28.503906 12.289062 28.128906 C 12.273438 28.101562 12.257812 28.070312 12.238281 28.042969 C 12.234375 27.996094 12.203125 28.003906 12.179688 27.988281 C 12.203125 27.921875 12.222656 27.867188 12.238281 27.730469 C 12.296875 27.257812 12.097656 27.113281 12.023438 27.582031 C 11.996094 27.765625 12.019531 27.9375 12.054688 28.039062 C 12.046875 28.054688 12.027344 28.054688 12.027344 28.074219 C 11.738281 28.03125 11.445312 27.9375 11.15625 27.824219 C 11.21875 27.59375 11.214844 27.347656 11.230469 27.117188 C 11.234375 27.097656 11.226562 27.042969 11.21875 26.976562 C 11.375 27.082031 11.539062 27.179688 11.71875 27.238281 C 11.839844 27.28125 11.9375 27.25 12.015625 27.199219 C 12.050781 27.257812 12.101562 27.261719 12.164062 27.230469 C 12.234375 27.257812 12.316406 27.269531 12.414062 27.238281 C 12.691406 27.144531 12.9375 26.964844 13.171875 26.777344 C 13.167969 26.816406 13.160156 26.824219 13.160156 26.875 C 13.164062 27.074219 13.222656 27.242188 13.28125 27.335938 C 13.144531 27.414062 13.015625 27.503906 12.878906 27.574219 C 12.75 27.640625 12.28125 27.757812 12.261719 27.9375 C 12.226562 28.234375 12.628906 27.984375 12.679688 27.960938 C 15.550781 26.609375 18.101562 24.039062 19.769531 21.179688 C 20.289062 20.375 20.886719 19.257812 20.953125 19.105469 C 21.222656 18.476562 21.464844 17.828125 21.699219 17.179688 C 21.785156 16.972656 21.871094 16.765625 21.953125 16.554688 C 22.03125 16.347656 22.109375 16.140625 22.183594 15.929688 C 22.191406 15.90625 22.167969 15.890625 22.160156 15.871094 C 22.328125 15.363281 22.503906 14.859375 22.660156 14.351562 C 22.960938 13.394531 23.121094 12.425781 23.273438 11.453125 C 23.507812 10.59375 23.746094 9.730469 23.921875 8.855469 C 24.027344 8.339844 24.109375 7.8125 24.152344 7.285156 C 24.171875 7.054688 24.175781 6.828125 24.183594 6.597656 C 24.207031 6.503906 24.207031 6.40625 24.238281 6.3125 C 24.234375 6.320312 24.265625 6.007812 24.242188 5.878906 C 24.324219 5.800781 24.355469 5.734375 24.21875 5.757812 " fill-opacity="1" fill-rule="nonzero"/></g><path fill="#007a3f" d="M 21.699219 14.488281 C 21.671875 14.460938 21.652344 14.4375 21.699219 14.488281 " fill-opacity="1" fill-rule="nonzero"/><path fill="#007a3f" d="M 17.191406 23.9375 C 17.191406 23.941406 17.191406 23.941406 17.191406 23.945312 C 17.214844 24.03125 17.203125 23.984375 17.191406 23.9375 " fill-opacity="1" fill-rule="nonzero"/><g fill="#000000" fill-opacity="1"><g transform="translate(27.40645, 21.338408)"><g><path d="M 5.671875 0.1875 C 4.859375 0.1875 4.125 0.078125 3.46875 -0.140625 C 2.820312 -0.367188 2.28125 -0.660156 1.84375 -1.015625 C 1.414062 -1.378906 1.097656 -1.78125 0.890625 -2.21875 L 1.71875 -3.21875 L 1.9375 -3.21875 C 2.75 -1.863281 3.992188 -1.1875 5.671875 -1.1875 C 6.648438 -1.1875 7.375 -1.390625 7.84375 -1.796875 C 8.320312 -2.210938 8.5625 -2.785156 8.5625 -3.515625 C 8.5625 -3.929688 8.484375 -4.285156 8.328125 -4.578125 C 8.171875 -4.878906 7.910156 -5.132812 7.546875 -5.34375 C 7.191406 -5.5625 6.703125 -5.742188 6.078125 -5.890625 L 4.5625 -6.265625 C 3.4375 -6.535156 2.601562 -6.96875 2.0625 -7.5625 C 1.53125 -8.164062 1.265625 -8.921875 1.265625 -9.828125 C 1.265625 -10.472656 1.425781 -11.046875 1.75 -11.546875 C 2.082031 -12.054688 2.566406 -12.453125 3.203125 -12.734375 C 3.847656 -13.023438 4.613281 -13.171875 5.5 -13.171875 C 6.476562 -13.171875 7.300781 -13.03125 7.96875 -12.75 C 8.644531 -12.476562 9.1875 -12.066406 9.59375 -11.515625 L 8.84375 -10.515625 L 8.625 -10.515625 C 8.25 -10.972656 7.804688 -11.304688 7.296875 -11.515625 C 6.785156 -11.734375 6.1875 -11.84375 5.5 -11.84375 C 4.601562 -11.84375 3.925781 -11.664062 3.46875 -11.3125 C 3.007812 -10.96875 2.78125 -10.484375 2.78125 -9.859375 C 2.78125 -9.273438 2.945312 -8.8125 3.28125 -8.46875 C 3.625 -8.125 4.191406 -7.851562 4.984375 -7.65625 L 6.546875 -7.296875 C 7.804688 -6.992188 8.71875 -6.535156 9.28125 -5.921875 C 9.84375 -5.316406 10.125 -4.535156 10.125 -3.578125 C 10.125 -2.847656 9.957031 -2.195312 9.625 -1.625 C 9.300781 -1.0625 8.804688 -0.617188 8.140625 -0.296875 C 7.472656 0.0234375 6.648438 0.1875 5.671875 0.1875 Z M 5.671875 0.1875 "/></g></g></g><g fill="#000000" fill-opacity="1"><g transform="translate(38.535982, 21.338408)"><g><path d="M 1.703125 0 L 1.703125 -13.734375 L 3.15625 -13.734375 L 3.15625 -8.40625 L 3.34375 -8.359375 C 4.039062 -9.441406 5.050781 -9.984375 6.375 -9.984375 C 7.550781 -9.984375 8.398438 -9.679688 8.921875 -9.078125 C 9.453125 -8.472656 9.71875 -7.550781 9.71875 -6.3125 L 9.71875 0 L 8.28125 0 L 8.28125 -6.265625 C 8.28125 -6.859375 8.203125 -7.332031 8.046875 -7.6875 C 7.898438 -8.050781 7.664062 -8.3125 7.34375 -8.46875 C 7.03125 -8.632812 6.613281 -8.71875 6.09375 -8.71875 C 5.207031 -8.71875 4.492188 -8.429688 3.953125 -7.859375 C 3.421875 -7.285156 3.15625 -6.34375 3.15625 -5.03125 L 3.15625 0 Z M 1.703125 0 "/></g></g></g><g fill="#000000" fill-opacity="1"><g transform="translate(49.81651, 21.338408)"><g><path d="M 2.4375 -11.6875 C 2.125 -11.6875 1.867188 -11.78125 1.671875 -11.96875 C 1.484375 -12.164062 1.390625 -12.410156 1.390625 -12.703125 C 1.390625 -13.003906 1.484375 -13.25 1.671875 -13.4375 C 1.867188 -13.632812 2.125 -13.734375 2.4375 -13.734375 C 2.738281 -13.734375 2.984375 -13.632812 3.171875 -13.4375 C 3.367188 -13.25 3.46875 -13.003906 3.46875 -12.703125 C 3.46875 -12.410156 3.367188 -12.164062 3.171875 -11.96875 C 2.984375 -11.78125 2.738281 -11.6875 2.4375 -11.6875 Z M 1.703125 0 L 1.703125 -9.796875 L 3.15625 -9.796875 L 3.15625 0 Z M 1.703125 0 "/></g></g></g><g fill="#000000" fill-opacity="1"><g transform="translate(54.675134, 21.338408)"><g><path d="M 9.328125 -4.5625 L 2.609375 -4.5625 C 2.648438 -3.375 2.929688 -2.5 3.453125 -1.9375 C 3.984375 -1.382812 4.710938 -1.109375 5.640625 -1.109375 C 6.335938 -1.109375 6.898438 -1.234375 7.328125 -1.484375 C 7.753906 -1.734375 8.085938 -2.125 8.328125 -2.65625 L 8.515625 -2.65625 L 9.453125 -2.09375 C 9.171875 -1.382812 8.71875 -0.828125 8.09375 -0.421875 C 7.46875 -0.015625 6.648438 0.1875 5.640625 0.1875 C 4.691406 0.1875 3.875 0 3.1875 -0.375 C 2.507812 -0.75 1.988281 -1.3125 1.625 -2.0625 C 1.257812 -2.820312 1.078125 -3.765625 1.078125 -4.890625 C 1.078125 -6.003906 1.269531 -6.941406 1.65625 -7.703125 C 2.039062 -8.472656 2.566406 -9.046875 3.234375 -9.421875 C 3.910156 -9.796875 4.679688 -9.984375 5.546875 -9.984375 C 6.804688 -9.984375 7.785156 -9.628906 8.484375 -8.921875 C 9.191406 -8.210938 9.550781 -7.160156 9.5625 -5.765625 C 9.5625 -5.222656 9.546875 -4.859375 9.515625 -4.671875 Z M 8.125 -5.765625 C 8.101562 -6.804688 7.875 -7.5625 7.4375 -8.03125 C 7 -8.507812 6.367188 -8.75 5.546875 -8.75 C 4.691406 -8.75 4.019531 -8.507812 3.53125 -8.03125 C 3.039062 -7.5625 2.742188 -6.804688 2.640625 -5.765625 Z M 8.125 -5.765625 "/></g></g></g><g fill="#000000" fill-opacity="1"><g transform="translate(65.120726, 21.338408)"><g><path d="M 3.90625 0.1875 C 3.207031 0.1875 2.660156 -0.0078125 2.265625 -0.40625 C 1.867188 -0.800781 1.671875 -1.390625 1.671875 -2.171875 L 1.671875 -13.734375 L 3.109375 -13.734375 L 3.109375 -2.265625 C 3.109375 -1.859375 3.1875 -1.5625 3.34375 -1.375 C 3.507812 -1.195312 3.753906 -1.109375 4.078125 -1.109375 C 4.285156 -1.109375 4.492188 -1.140625 4.703125 -1.203125 L 4.828125 -1.171875 L 4.984375 -0.03125 C 4.878906 0.0390625 4.726562 0.09375 4.53125 0.125 C 4.332031 0.164062 4.125 0.1875 3.90625 0.1875 Z M 3.90625 0.1875 "/></g></g></g><g fill="#000000" fill-opacity="1"><g transform="translate(70.450109, 21.338408)"><g><path d="M 5.078125 0.1875 C 4.296875 0.1875 3.601562 0 3 -0.375 C 2.394531 -0.75 1.921875 -1.316406 1.578125 -2.078125 C 1.242188 -2.835938 1.078125 -3.773438 1.078125 -4.890625 C 1.078125 -6.015625 1.253906 -6.957031 1.609375 -7.71875 C 1.960938 -8.476562 2.453125 -9.046875 3.078125 -9.421875 C 3.703125 -9.796875 4.425781 -9.984375 5.25 -9.984375 C 5.894531 -9.984375 6.476562 -9.859375 7 -9.609375 C 7.519531 -9.367188 7.96875 -8.96875 8.34375 -8.40625 L 8.53125 -8.4375 L 8.53125 -13.734375 L 9.984375 -13.734375 L 9.984375 0 L 8.53125 0 L 8.53125 -1.4375 L 8.34375 -1.46875 C 8.03125 -0.976562 7.597656 -0.578125 7.046875 -0.265625 C 6.492188 0.0351562 5.835938 0.1875 5.078125 0.1875 Z M 5.53125 -1.109375 C 6.445312 -1.109375 7.175781 -1.421875 7.71875 -2.046875 C 8.257812 -2.671875 8.53125 -3.617188 8.53125 -4.890625 C 8.53125 -6.171875 8.257812 -7.125 7.71875 -7.75 C 7.175781 -8.375 6.445312 -8.6875 5.53125 -8.6875 C 4.59375 -8.6875 3.867188 -8.378906 3.359375 -7.765625 C 2.847656 -7.160156 2.59375 -6.203125 2.59375 -4.890625 C 2.59375 -2.367188 3.570312 -1.109375 5.53125 -1.109375 Z M 5.53125 -1.109375 "/></g></g></g><g fill="#000000" fill-opacity="1"><g transform="translate(82.148108, 21.338408)"><g/></g></g><g fill="#000000" fill-opacity="1"><g transform="translate(86.607026, 21.338408)"><g><path d="M 6.15625 -12.984375 C 7.476562 -12.984375 8.609375 -12.75 9.546875 -12.28125 C 10.492188 -11.8125 11.222656 -11.09375 11.734375 -10.125 C 12.242188 -9.15625 12.5 -7.941406 12.5 -6.484375 C 12.5 -5.035156 12.242188 -3.828125 11.734375 -2.859375 C 11.222656 -1.890625 10.492188 -1.171875 9.546875 -0.703125 C 8.609375 -0.234375 7.476562 0 6.15625 0 L 1.96875 0 L 1.96875 -12.984375 Z M 6.015625 -1.296875 C 7.097656 -1.296875 7.992188 -1.460938 8.703125 -1.796875 C 9.410156 -2.140625 9.945312 -2.691406 10.3125 -3.453125 C 10.6875 -4.210938 10.875 -5.222656 10.875 -6.484375 C 10.875 -7.753906 10.6875 -8.769531 10.3125 -9.53125 C 9.945312 -10.289062 9.410156 -10.835938 8.703125 -11.171875 C 7.992188 -11.515625 7.097656 -11.6875 6.015625 -11.6875 L 3.484375 -11.6875 L 3.484375 -1.296875 Z M 6.015625 -1.296875 "/></g></g></g><g fill="#000000" fill-opacity="1"><g transform="translate(100.410129, 21.338408)"><g><path d="M 5.625 0.1875 C 4.695312 0.1875 3.890625 -0.00390625 3.203125 -0.390625 C 2.523438 -0.785156 2 -1.363281 1.625 -2.125 C 1.257812 -2.882812 1.078125 -3.804688 1.078125 -4.890625 C 1.078125 -5.972656 1.257812 -6.894531 1.625 -7.65625 C 2 -8.425781 2.523438 -9.003906 3.203125 -9.390625 C 3.890625 -9.785156 4.695312 -9.984375 5.625 -9.984375 C 6.539062 -9.984375 7.34375 -9.785156 8.03125 -9.390625 C 8.71875 -9.003906 9.242188 -8.425781 9.609375 -7.65625 C 9.984375 -6.894531 10.171875 -5.972656 10.171875 -4.890625 C 10.171875 -3.804688 9.984375 -2.882812 9.609375 -2.125 C 9.242188 -1.363281 8.71875 -0.785156 8.03125 -0.390625 C 7.34375 -0.00390625 6.539062 0.1875 5.625 0.1875 Z M 5.625 -1.109375 C 6.601562 -1.109375 7.347656 -1.414062 7.859375 -2.03125 C 8.378906 -2.644531 8.640625 -3.597656 8.640625 -4.890625 C 8.640625 -6.191406 8.378906 -7.148438 7.859375 -7.765625 C 7.347656 -8.378906 6.601562 -8.6875 5.625 -8.6875 C 4.644531 -8.6875 3.894531 -8.375 3.375 -7.75 C 2.851562 -7.132812 2.59375 -6.179688 2.59375 -4.890625 C 2.59375 -3.597656 2.851562 -2.644531 3.375 -2.03125 C 3.894531 -1.414062 4.644531 -1.109375 5.625 -1.109375 Z M 5.625 -1.109375 "/></g></g></g><g fill="#000000" fill-opacity="1"><g transform="translate(111.655128, 21.338408)"><g><path d="M 5.625 0.1875 C 4.757812 0.1875 3.984375 -0.0078125 3.296875 -0.40625 C 2.609375 -0.800781 2.066406 -1.378906 1.671875 -2.140625 C 1.273438 -2.910156 1.078125 -3.828125 1.078125 -4.890625 C 1.078125 -5.960938 1.273438 -6.878906 1.671875 -7.640625 C 2.066406 -8.410156 2.609375 -8.992188 3.296875 -9.390625 C 3.984375 -9.785156 4.757812 -9.984375 5.625 -9.984375 C 6.65625 -9.984375 7.476562 -9.785156 8.09375 -9.390625 C 8.707031 -9.003906 9.148438 -8.484375 9.421875 -7.828125 L 8.4375 -7.125 L 8.265625 -7.125 C 7.992188 -7.664062 7.648438 -8.0625 7.234375 -8.3125 C 6.816406 -8.5625 6.28125 -8.6875 5.625 -8.6875 C 5.019531 -8.6875 4.488281 -8.539062 4.03125 -8.25 C 3.570312 -7.96875 3.21875 -7.539062 2.96875 -6.96875 C 2.71875 -6.40625 2.59375 -5.710938 2.59375 -4.890625 C 2.59375 -4.078125 2.71875 -3.382812 2.96875 -2.8125 C 3.226562 -2.25 3.582031 -1.820312 4.03125 -1.53125 C 4.488281 -1.25 5.019531 -1.109375 5.625 -1.109375 C 6.300781 -1.109375 6.863281 -1.257812 7.3125 -1.5625 C 7.757812 -1.875 8.109375 -2.363281 8.359375 -3.03125 L 8.546875 -3.03125 L 9.5 -2.46875 C 9.25 -1.644531 8.796875 -0.992188 8.140625 -0.515625 C 7.484375 -0.046875 6.644531 0.1875 5.625 0.1875 Z M 5.625 0.1875 "/></g></g></g><g fill="#000000" fill-opacity="1"><g transform="translate(121.754308, 21.338408)"><g><path d="M 4.46875 0.1875 C 3.851562 0.1875 3.28125 0.109375 2.75 -0.046875 C 2.226562 -0.210938 1.785156 -0.4375 1.421875 -0.71875 C 1.066406 -1.007812 0.816406 -1.332031 0.671875 -1.6875 L 1.515625 -2.578125 L 1.703125 -2.578125 C 2.023438 -2.085938 2.410156 -1.71875 2.859375 -1.46875 C 3.304688 -1.226562 3.84375 -1.109375 4.46875 -1.109375 C 5.1875 -1.109375 5.734375 -1.25 6.109375 -1.53125 C 6.484375 -1.8125 6.671875 -2.203125 6.671875 -2.703125 C 6.671875 -3.085938 6.554688 -3.40625 6.328125 -3.65625 C 6.109375 -3.914062 5.742188 -4.109375 5.234375 -4.234375 L 3.578125 -4.640625 C 2.691406 -4.847656 2.046875 -5.179688 1.640625 -5.640625 C 1.234375 -6.109375 1.03125 -6.679688 1.03125 -7.359375 C 1.03125 -7.890625 1.164062 -8.351562 1.4375 -8.75 C 1.71875 -9.144531 2.113281 -9.445312 2.625 -9.65625 C 3.132812 -9.875 3.742188 -9.984375 4.453125 -9.984375 C 5.347656 -9.984375 6.054688 -9.859375 6.578125 -9.609375 C 7.097656 -9.359375 7.5 -9.003906 7.78125 -8.546875 L 6.96875 -7.75 L 6.796875 -7.75 C 6.484375 -8.113281 6.140625 -8.375 5.765625 -8.53125 C 5.398438 -8.695312 4.960938 -8.78125 4.453125 -8.78125 C 3.804688 -8.78125 3.3125 -8.660156 2.96875 -8.421875 C 2.625 -8.191406 2.453125 -7.859375 2.453125 -7.421875 C 2.453125 -7.023438 2.570312 -6.703125 2.8125 -6.453125 C 3.050781 -6.210938 3.472656 -6.019531 4.078125 -5.875 L 5.703125 -5.484375 C 6.554688 -5.285156 7.171875 -4.953125 7.546875 -4.484375 C 7.929688 -4.015625 8.125 -3.425781 8.125 -2.71875 C 8.125 -2.144531 7.988281 -1.640625 7.71875 -1.203125 C 7.445312 -0.765625 7.035156 -0.421875 6.484375 -0.171875 C 5.929688 0.0664062 5.257812 0.1875 4.46875 0.1875 Z M 4.46875 0.1875 "/></g></g></g></g></g></g></svg>